<svg width="32" height="32" fill="none" xmlns="http://www.w3.org/2000/svg"><path d="M16 32c-.295 0-.572-.115-.781-.323l-3.99-3.99a.165.165 0 0 0-.118-.05H5.466a1.105 1.105 0 0 1-1.104-1.104v-5.644a.166.166 0 0 0-.049-.118l-3.99-3.99a1.106 1.106 0 0 1 0-1.562l3.99-3.99a.166.166 0 0 0 .049-.118V5.467c0-.609.495-1.104 1.104-1.104h5.644a.166.166 0 0 0 .118-.049l3.99-3.99C15.428.113 15.705 0 16 0c.295 0 .572.115.78.324l1 1a.469.469 0 1 1-.662.662l-1-1a.166.166 0 0 0-.236 0l-3.99 3.99a1.097 1.097 0 0 1-.781.324H5.467a.167.167 0 0 0-.167.167v5.644c0 .295-.115.572-.323.78l-3.99 3.991a.167.167 0 0 0 0 .236l3.99 3.99c.208.21.323.486.323.781v5.644c0 .092.075.167.167.167h5.644c.295 0 .572.115.78.323l3.991 3.99a.166.166 0 0 0 .236 0l3.99-3.99c.209-.208.486-.323.781-.323h5.644a.167.167 0 0 0 .167-.167v-5.644c0-.295.114-.572.323-.78l3.99-3.991a.167.167 0 0 0 0-.236l-3.99-3.99a1.097 1.097 0 0 1-.323-.781V5.467a.167.167 0 0 0-.167-.167h-5.644c-.295 0-.572-.114-.78-.323L18.62 3.489a.469.469 0 0 1 .663-.663l1.488 1.488a.166.166 0 0 0 .118.049h5.644c.609 0 1.104.495 1.104 1.104v5.644c0 .044.017.086.049.118l3.99 3.99c.431.43.431 1.131 0 1.562l-3.99 3.99a.166.166 0 0 0-.049.119v5.643c0 .609-.495 1.104-1.104 1.104h-5.644a.165.165 0 0 0-.117.05l-3.991 3.99A1.098 1.098 0 0 1 16 32z" fill="#fff"/><path d="M10.481 3.145a.469.469 0 0 1-.433-.29l-.706-1.703a.469.469 0 1 1 .867-.358l.705 1.703a.469.469 0 0 1-.433.648zM22.225 31.496a.469.469 0 0 1-.434-.29l-.705-1.703a.469.469 0 1 1 .866-.358l.706 1.703a.469.469 0 0 1-.433.648zM9.775 31.496a.469.469 0 0 1-.433-.648l.706-1.703a.469.469 0 1 1 .866.358l-.705 1.703a.47.47 0 0 1-.434.29zM21.519 3.145a.467.467 0 0 1-.433-.648l.706-1.703a.469.469 0 1 1 .866.358l-.706 1.703a.469.469 0 0 1-.433.29zM29.324 10.95a.469.469 0 0 1-.18-.902l1.703-.705a.469.469 0 1 1 .36.866l-1.704.705a.467.467 0 0 1-.179.036zM.973 22.693a.469.469 0 0 1-.18-.902l1.703-.705a.469.469 0 0 1 .36.866l-1.704.705a.469.469 0 0 1-.179.036zM2.676 10.95a.467.467 0 0 1-.18-.036l-1.703-.705a.469.469 0 1 1 .36-.866l1.702.705a.469.469 0 0 1-.18.902zM31.027 22.693a.467.467 0 0 1-.18-.036l-1.703-.705a.469.469 0 1 1 .36-.866l1.702.705a.469.469 0 0 1-.18.902zM16 24.986c-4.955 0-8.986-4.031-8.986-8.986 0-4.955 4.031-8.986 8.986-8.986 4.955 0 8.985 4.031 8.985 8.986a8.915 8.915 0 0 1-1.756 5.337.469.469 0 0 1-.754-.558A7.983 7.983 0 0 0 24.048 16c0-4.438-3.61-8.048-8.048-8.048-4.438 0-8.048 3.61-8.048 8.048 0 4.438 3.61 8.048 8.048 8.048a8.063 8.063 0 0 0 5.09-1.814.469.469 0 0 1 .593.726A9.002 9.002 0 0 1 16 24.986z" fill="#fff"/><path d="M15.498 22.969c-.042 0-.083-.003-.125-.007A6.994 6.994 0 0 1 9.151 16a6.994 6.994 0 0 1 6.222-6.962 1.129 1.129 0 0 1 1.252 1.119v7.635a.469.469 0 0 1-.938 0v-7.635a.189.189 0 0 0-.21-.187A6.057 6.057 0 0 0 10.088 16a6.057 6.057 0 0 0 5.389 6.03.186.186 0 0 0 .148-.047.186.186 0 0 0 .062-.14v-1.926a.469.469 0 0 1 .938 0v1.926a1.126 1.126 0 0 1-1.127 1.126z" fill="#fff"/></svg>