<svg width="37" height="31" fill="none" xmlns="http://www.w3.org/2000/svg"><path d="M28.459.001a8.518 8.518 0 0 1 8.509 8.51v.042c0 .028.003.07.007.126.174 3.09-.33 11.433-8.773 22.124a.52.52 0 0 1-.9-.49c.025-.07 2.332-6.98.756-13.304A8.509 8.509 0 0 1 28.46 0l-.002.001zm7.47 8.48a7.47 7.47 0 1 0-7.47 7.498.52.52 0 0 1 .5.382c1.196 4.35.61 8.913.016 11.682 6.696-9.38 7.116-16.539 6.96-19.306a2.213 2.213 0 0 1-.007-.256zM9.133.001a8.518 8.518 0 0 1 8.509 8.51v.042c0 .028.003.07.006.126.175 3.09-.33 11.433-8.772 22.124a.52.52 0 0 1-.9-.49c.025-.07 2.332-6.98.755-13.304A8.51 8.51 0 0 1 9.135 0l-.002.001zm7.47 8.48a7.47 7.47 0 1 0-7.47 7.498.52.52 0 0 1 .5.382c1.196 4.35.61 8.913.016 11.682 6.696-9.38 7.117-16.539 6.96-19.306a2.19 2.19 0 0 1-.007-.256z" fill="#5C36CA"/></svg>