<svg width="28" height="28" fill="none" xmlns="http://www.w3.org/2000/svg"><g clip-path="url(#a)" fill="#fff"><path d="M10.505 19.662a2.212 2.212 0 0 0 2.019-.162l1.335-.83a.26.26 0 0 1 .268-.005l1.67.963a2.205 2.205 0 0 0 2.075.071l2.927-1.432a1.934 1.934 0 0 0 .964-2.43l-.394-1.046a1.952 1.952 0 0 0-1.818-1.257H8.406a1.94 1.94 0 0 0-1.843 1.329l-.351 1.054a1.95 1.95 0 0 0 1.093 2.406l3.2 1.339zM6.99 16.177l.351-1.055a1.12 1.12 0 0 1 1.064-.766H19.55c.464 0 .886.292 1.05.725l.393 1.046a1.116 1.116 0 0 1-.556 1.402l-2.927 1.432a1.385 1.385 0 0 1-1.303-.044l-1.67-.964a1.082 1.082 0 0 0-1.113.019l-1.335.83a1.39 1.39 0 0 1-1.268.102l-3.2-1.339a1.126 1.126 0 0 1-.631-1.388z"/><path d="M8.878 16.995c.343.244.814.428 1.326.519.24.042.47.062.685.062.884 0 1.533-.34 1.633-.905.039-.22.017-.652-.563-1.066-.343-.244-.814-.428-1.326-.518-1.22-.215-2.194.14-2.318.842-.039.22-.018.653.563 1.066zm1.08-1.148c.157 0 .335.014.532.049.844.149 1.216.529 1.223.633-.042.095-.522.325-1.366.176-.849-.15-1.22-.533-1.223-.631.028-.073.317-.227.835-.227zM17.111 17.576c.216 0 .445-.02.685-.062.512-.09.983-.275 1.326-.519.58-.413.602-.845.563-1.066-.124-.703-1.098-1.057-2.317-.842-.513.09-.984.274-1.327.518-.58.414-.602.846-.563 1.066.1.565.749.905 1.633.905zm.4-1.68a3.06 3.06 0 0 1 .53-.05c.514 0 .803.153.835.226-.006.104-.379.484-1.223.633-.85.15-1.33-.084-1.366-.175.002-.101.374-.485 1.223-.634z"/><path d="M27.61 24.328V8.386c0-.981-.798-1.78-1.78-1.78h-4.748a7.587 7.587 0 0 0-1.712-2.621 7.558 7.558 0 0 0-3.115-1.886 2.25 2.25 0 0 0-.654-1.402A2.251 2.251 0 0 0 14 .034c-.604 0-1.173.235-1.601.663a2.25 2.25 0 0 0-.654 1.404 7.604 7.604 0 0 0-4.828 4.505H2.17c-.982 0-1.78.799-1.78 1.78v3.916a.41.41 0 1 0 .821 0V8.386a.96.96 0 0 1 .959-.958h4.482a7.589 7.589 0 0 0-.208 1.15c-.71.099-1.257.71-1.257 1.446v.845c0 .806.655 1.46 1.46 1.46h14.706c.805 0 1.46-.654 1.46-1.46v-.845c0-.737-.548-1.348-1.258-1.446-.04-.39-.11-.775-.207-1.15h4.482a.96.96 0 0 1 .959.958v15.355a1.799 1.799 0 0 0-.597-.102H1.808a1.8 1.8 0 0 0-.597.102v-9.522a.41.41 0 1 0-.821 0v10.109c-.244.308-.39.697-.39 1.12v.71a1.81 1.81 0 0 0 1.808 1.808h19.67a.41.41 0 1 0 0-.822H1.808a.988.988 0 0 1-.986-.986v-.71c0-.545.442-.987.986-.987h6.224v.849c0 .528.43.958.958.958h10.023a.96.96 0 0 0 .958-.958v-.85h6.221c.544 0 .986.443.986.987v.711a.988.988 0 0 1-.986.986h-2.797a.41.41 0 1 0 0 .822h2.797A1.81 1.81 0 0 0 28 26.158v-.71c0-.423-.146-.812-.39-1.12zM12.98 1.278A1.435 1.435 0 0 1 14 .855c.385 0 .747.15 1.02.423.172.172.295.38.363.608a7.678 7.678 0 0 0-2.766 0c.067-.227.19-.435.363-.608zM14 2.582c1.81 0 3.51.704 4.79 1.984a6.752 6.752 0 0 1 1.937 3.997H7.273A6.769 6.769 0 0 1 14 2.582zm7.992 7.442v.845a.64.64 0 0 1-.639.639H6.647a.64.64 0 0 1-.639-.639v-.845a.64.64 0 0 1 .639-.64h14.706a.64.64 0 0 1 .639.64zM19.15 25.31a.137.137 0 0 1-.137.137H8.99a.137.137 0 0 1-.137-.137v-.85H19.15v.85z"/></g><defs><clipPath id="a"><path fill="#fff" d="M0 0h28v28H0z"/></clipPath></defs></svg>