<svg width="66" height="70" fill="none" xmlns="http://www.w3.org/2000/svg"><path d="m65.001 18.13-1.969-1.094.243-.437-3.937-2.188-.243.437-3.938-2.187.243-.437-3.937-2.188-.243.437-3.938-2.187.243-.437-3.937-2.188-.243.437-3.938-2.187.243-.437-3.937-2.188-.243.437L33.5.63a1.028 1.028 0 0 0-.242-.097l.125-.484a1.537 1.537 0 0 0-.768 0l.125.484a1.026 1.026 0 0 0-.242.097M65 18.13 32.5.63M65 18.13a.994.994 0 0 1 .207.152l.346-.36c.189.18.324.406.394.654l-.482.135c.022.08.034.163.034.247v2.674h.5v5.347h-.5v5.347h.5v5.348h-.5v5.347h.5v5.347h-.5v2.674a.92.92 0 0 1-.034.247l.482.134c-.07.248-.205.475-.394.656l-.346-.36a.988.988 0 0 1-.207.151l-1.969 1.094.243.437-3.937 2.188-.243-.437-3.938 2.187.243.437-3.937 2.188-.243-.437-3.938 2.187.243.437-3.937 2.188-.243-.437-3.938 2.187.243.437-3.937 2.188-.243-.437-1.969 1.093.243.438-.243-.438c-.038.022-.078.04-.118.057l.186.464c-.121.048-.247.08-.375.097l-.063-.496a1.057 1.057 0 0 1-.262 0l-.063.496a1.523 1.523 0 0 1-.375-.097l.186-.464a1.017 1.017 0 0 1-.118-.057l-.243.438.243-.438-1.969-1.093-.243.437-3.937-2.188.242-.437-3.937-2.187-.243.437-3.937-2.188.242-.437-3.937-2.187-.243.437-3.937-2.188.243-.437-3.938-2.187-.243.437L2.725 53.4l.243-.437-1.97-1.094a.99.99 0 0 1-.206-.152l-.346.36a1.452 1.452 0 0 1-.394-.655l.482-.134a.917.917 0 0 1-.034-.247v-2.674H0v-5.347h.5v-5.347H0v-5.348h.5V26.98H0v-5.347h.5v-2.674c0-.084.012-.167.034-.247l-.482-.134c.07-.249.205-.475.394-.656l.346.36c.06-.057.13-.109.207-.151l1.969-1.094-.243-.437 3.937-2.188.243.437 3.938-2.187-.243-.437 3.937-2.188.243.437 3.938-2.187-.243-.437 3.937-2.188.243.437 3.938-2.187-.243-.437 3.937-2.188.243.437L32.499.63M65 18.13 32.256.192l.243.438" stroke="#7D53F8" stroke-dasharray="5 5"/></svg>