<svg width="57" height="57" fill="none" xmlns="http://www.w3.org/2000/svg"><circle cx="34.501" cy="12.5" r="11.5" fill="#00C5DE"/><path d="M5.43 50.677h1.81v1.81H5.43v-1.81zM9.05 50.677h1.81v1.81H9.05v-1.81zM12.67 50.677h1.81v1.81h-1.81v-1.81zM43.438 50.677h7.24v1.81h-7.24v-1.81z" fill="#fff"/><path d="M54.297 47.057V17.194a4.53 4.53 0 0 0-4.524-4.525h-2.715C47.058 5.683 41.375 0 34.388 0 27.403 0 21.72 5.683 21.72 12.67H6.336a4.53 4.53 0 0 0-4.525 4.524v29.863H0v4.525a4.53 4.53 0 0 0 4.525 4.525h47.057a4.53 4.53 0 0 0 4.524-4.525v-4.525h-1.81zM49.773 14.48a2.718 2.718 0 0 1 2.714 2.715v29.863h-1.81V18.1c0-.998-.811-1.81-1.81-1.81h-2.343c.175-.586.3-1.192.389-1.81h2.86zM24.055 9.344l9.605 4.002 3.289 9.865a10.8 10.8 0 0 1-2.56.318c-5.988 0-10.86-4.871-10.86-10.86 0-1.16.188-2.277.526-3.325zm14.613 13.302-3.244-9.732 7.248-7.249a10.8 10.8 0 0 1 2.576 7.004c0 4.469-2.715 8.313-6.58 9.977zM34.388 1.81c2.67 0 5.113.972 7.006 2.575L34.178 11.6l-9.421-3.925c1.81-3.48 5.445-5.866 9.632-5.866zM3.622 17.194a2.718 2.718 0 0 1 2.715-2.715h15.528c.089.619.214 1.224.39 1.81H7.24c-.998 0-1.81.812-1.81 1.81v28.958H3.62V17.194zm50.676 34.388a2.718 2.718 0 0 1-2.714 2.715H4.526a2.718 2.718 0 0 1-2.715-2.715v-2.715h18.643a7.032 7.032 0 0 0 4.73 1.81h5.74c1.764 0 3.43-.64 4.73-1.81h11.404v-1.81H34.919l-.265.265a5.239 5.239 0 0 1-3.73 1.545h-5.74a5.24 5.24 0 0 1-3.73-1.545l-.265-.265H7.241V18.1h15.718c2.04 4.273 6.389 7.24 11.43 7.24 5.041 0 9.39-2.967 11.429-7.24h3.05v30.768h5.43v2.715z" fill="#fff"/><path d="M44.343 38.008a2.7 2.7 0 0 0-1.503.457l-3.157-2.367c.08-.256.135-.523.135-.805a2.718 2.718 0 0 0-2.715-2.715 2.718 2.718 0 0 0-2.714 2.715c0 .312.063.606.16.885l-5.069 4.055a2.687 2.687 0 0 0-1.426-.415c-.609 0-1.166.209-1.619.548l-3.902-2.602c.054-.212.091-.431.091-.661a2.718 2.718 0 0 0-2.714-2.715 2.718 2.718 0 0 0-2.715 2.715c0 .23.037.449.091.661l-3.902 2.602a2.686 2.686 0 0 0-1.619-.548 2.718 2.718 0 0 0-2.715 2.715 2.718 2.718 0 0 0 2.715 2.715 2.718 2.718 0 0 0 2.715-2.715c0-.23-.037-.45-.091-.662l3.902-2.602c.453.34 1.01.549 1.619.549.608 0 1.165-.208 1.619-.548l3.902 2.601a2.658 2.658 0 0 0-.092.662 2.718 2.718 0 0 0 2.715 2.715 2.718 2.718 0 0 0 2.715-2.715c0-.312-.063-.607-.16-.885l5.068-4.055c.416.258.901.415 1.426.415a2.7 2.7 0 0 0 1.504-.457l3.157 2.367c-.08.256-.136.523-.136.805a2.718 2.718 0 0 0 2.715 2.715 2.718 2.718 0 0 0 2.715-2.715 2.718 2.718 0 0 0-2.715-2.715zm-32.578 5.43a.907.907 0 0 1-.905-.905c0-.499.407-.905.905-.905.498 0 .905.406.905.905a.907.907 0 0 1-.905.905zm8.145-5.43a.907.907 0 0 1-.905-.905c0-.498.406-.905.905-.905.498 0 .904.407.904.905a.907.907 0 0 1-.904.905zm8.144 5.43a.907.907 0 0 1-.905-.905c0-.499.407-.905.905-.905.498 0 .905.406.905.905a.907.907 0 0 1-.905.905zm9.05-7.24a.907.907 0 0 1-.905-.905c0-.498.406-.905.904-.905.499 0 .905.407.905.905a.907.907 0 0 1-.905.905zm7.239 5.43a.907.907 0 0 1-.905-.905c0-.499.407-.905.905-.905.498 0 .905.406.905.905a.907.907 0 0 1-.905.905zM23.53 19.909H9.05v12.669h14.48v-12.67zm-1.81 10.86H10.86v-9.05h10.86v9.05z" fill="#fff"/><path d="M12.67 23.529h7.24v1.81h-7.24v-1.81zM12.67 27.149h7.24v1.81h-7.24v-1.81zM25.34 28.958h1.81v1.81h-1.81v-1.81zM28.959 28.958h18.099v1.81H28.959v-1.81z" fill="#fff"/></svg>