<svg width="31" height="31" fill="none" xmlns="http://www.w3.org/2000/svg"><path d="M15.5 21.829a5.698 5.698 0 0 0 5.691-5.691V5.69A5.698 5.698 0 0 0 15.5 0a5.698 5.698 0 0 0-5.691 5.691v10.447a5.698 5.698 0 0 0 5.691 5.691zm0-20.618c2.47 0 4.48 2.01 4.48 4.48v5.004h-8.96V5.691c0-2.47 2.01-4.48 4.48-4.48zm-4.48 10.695h8.96v4.232c0 2.47-2.01 4.48-4.48 4.48-2.47 0-4.48-2.01-4.48-4.48v-4.232z" fill="#fff"/><path d="M14.027 7.95h2.946a.605.605 0 1 0 0-1.21h-2.946a.605.605 0 1 0 0 1.21zM14.027 5.694h2.946a.605.605 0 1 0 0-1.21h-2.946a.605.605 0 1 0 0 1.21zM23.252 15.532a.606.606 0 0 0-.606.606c0 3.94-3.206 7.146-7.146 7.146s-7.146-3.206-7.146-7.146a.605.605 0 1 0-1.211 0c0 3.995 2.819 7.345 6.572 8.164v3.061h-.048a3.034 3.034 0 0 0-3.03 3.032c0 .334.27.605.605.605h8.516a.605.605 0 0 0 .606-.605 3.035 3.035 0 0 0-3.031-3.032h-.048v-3.06c3.754-.82 6.572-4.17 6.572-8.165a.605.605 0 0 0-.605-.606zM19.049 29.79h-7.098a1.823 1.823 0 0 1 1.716-1.215h3.666c.791 0 1.466.508 1.716 1.215zm-2.975-2.426h-1.148v-2.888a8.402 8.402 0 0 0 1.148 0v2.888zM3.027 5.656a.605.605 0 0 0-.605.605v5.91a.606.606 0 0 0 1.21 0v-5.91a.605.605 0 0 0-.605-.605zM7.871 11.263a.605.605 0 0 0 .606-.605V7.774a.605.605 0 1 0-1.211 0v2.884c0 .334.27.605.605.605zM.605 3.27A.605.605 0 0 0 0 3.875v10.07a.605.605 0 1 0 1.21 0V3.876a.605.605 0 0 0-.605-.605zM5.45 5.044a.605.605 0 0 0-.606.606v8.184a.605.605 0 1 0 1.21 0V5.65a.605.605 0 0 0-.605-.606zM27.973 5.656a.605.605 0 0 0-.606.605v5.91a.606.606 0 0 0 1.211 0v-5.91a.605.605 0 0 0-.605-.605zM23.129 11.263a.605.605 0 0 0 .605-.605V7.774a.605.605 0 0 0-1.21 0v2.884c0 .334.27.605.605.605zM30.395 3.27a.605.605 0 0 0-.606.605v10.07a.605.605 0 1 0 1.211 0V3.876a.605.605 0 0 0-.605-.605zM25.55 13.229a.61.61 0 0 0-.427.177.61.61 0 0 0 .428 1.034.61.61 0 0 0 .605-.606.612.612 0 0 0-.177-.428.61.61 0 0 0-.428-.177zM25.55 5.044a.605.605 0 0 0-.605.606v5.613a.605.605 0 1 0 1.211 0V5.65a.605.605 0 0 0-.605-.606z" fill="#fff"/><path d="M15.5 19.284a3.15 3.15 0 0 0 3.147-3.146.606.606 0 0 0-1.211 0 1.938 1.938 0 0 1-1.936 1.935.605.605 0 1 0 0 1.211zM18.041 14.652a.61.61 0 0 0 .428-.177.61.61 0 0 0-.428-1.034.61.61 0 0 0-.605.606.61.61 0 0 0 .605.605z" fill="#fff"/></svg>