<svg width="31" height="32" fill="none" xmlns="http://www.w3.org/2000/svg"><path d="M28.82 3H2.18c-.45 0-.88.185-1.199.513A1.781 1.781 0 0 0 .484 4.75v18.5c0 .464.18.909.497 1.237.318.328.75.513 1.199.513h9.823l-.29 1.5H9.687a.477.477 0 0 0-.343.146.509.509 0 0 0-.142.354v1.5c0 .133.051.26.142.354.09.093.214.146.342.146h11.626a.477.477 0 0 0 .342-.146.509.509 0 0 0 .142-.354V27a.509.509 0 0 0-.142-.354.477.477 0 0 0-.343-.146h-2.024l-.29-1.5h9.822c.45 0 .88-.185 1.198-.513a1.78 1.78 0 0 0 .498-1.237V4.75c0-.464-.18-.909-.497-1.237A1.67 1.67 0 0 0 28.82 3zm-7.992 24.5v.5H10.172v-.5h10.656zm-8.128-1 .29-1.5h5.02l.29 1.5h-5.6zm16.847-3.25c0 .199-.077.39-.213.53a.716.716 0 0 1-.514.22H2.18a.716.716 0 0 1-.514-.22.763.763 0 0 1-.213-.53V22h28.094v1.25zm0-2.25H1.453V4.75c0-.199.077-.39.213-.53S1.987 4 2.18 4h26.64c.193 0 .378.08.514.22s.213.331.213.53V21z" fill="#fff"/><path d="M15.984 22.5h-.968a.477.477 0 0 0-.343.146.509.509 0 0 0 0 .708c.091.093.214.146.343.146h.968a.477.477 0 0 0 .343-.146.509.509 0 0 0 0-.708.477.477 0 0 0-.343-.146z" fill="#fff"/></svg>