<svg width="29" height="29" fill="none" xmlns="http://www.w3.org/2000/svg"><g clip-path="url(#a)" fill="#fff"><path d="m28.737 19.985-.68-1.586a.453.453 0 0 0-.251-.242.454.454 0 0 0-.349 0l-1.813.802-.643-.453a2.603 2.603 0 1 0-3.24-2.508c0 .091.005.182.014.274l-1.133-.784a.453.453 0 0 0-.251-.082h-3.172a.453.453 0 0 0-.453.453v1.813a.453.453 0 0 0 .453.453h2.347l1.155.825-4.59 9.397a.453.453 0 0 0 .408.653h2.04a.453.453 0 0 0 .405-.252l2.347-4.694.854.569-1.294 2.59a.453.453 0 0 0 .02.439.453.453 0 0 0 .386.226h2.039a.453.453 0 0 0 .408-.256l1.767-3.647a.453.453 0 0 0-.15-.571l-2.252-1.568.453-.895 1.491.992a.453.453 0 0 0 .453.034l3.016-1.39a.453.453 0 0 0 .215-.592zm-4.37-5.687a1.7 1.7 0 1 1 0 3.4 1.7 1.7 0 0 1 0-3.4zm-6.07 13.796h-1.033L19.756 23l.82.547-2.279 4.547zm7.049-7.056-1.711-1.132a.454.454 0 0 0-.657.176l-.845 1.706a.453.453 0 0 0 .147.574l2.245 1.558-1.472 3.04H22.03l1.144-2.29a.454.454 0 0 0-.154-.577l-2.857-1.913 1.552-3.171a.453.453 0 0 0-.143-.567l-1.586-1.133a.454.454 0 0 0-.276-.09h-2.04v-.907h2.577l5.095 3.544a.454.454 0 0 0 .453.043l1.618-.72.317.758-2.386 1.101zM13.594 9.407V6.344h1.359a.453.453 0 0 0 .453-.453V.453A.453.453 0 0 0 14.953 0H.453A.453.453 0 0 0 0 .453v5.438a.227.227 0 0 0 0 .056.227.227 0 0 0 0 .057V22.09a.453.453 0 0 0 .453.453 13.14 13.14 0 0 0 13.14-13.136zM.906.907H14.5v4.53H.906V.907zm0 20.72V6.449h11.781v2.945A12.234 12.234 0 0 1 .907 21.628zM18.578 4.305a3.155 3.155 0 0 1-.929 2.243.453.453 0 1 0 .642.64 4.077 4.077 0 0 0 0-5.767.454.454 0 1 0-.642.634 3.157 3.157 0 0 1 .93 2.25z"/><path d="M16.367 5.89a.453.453 0 0 0 .641 0 2.266 2.266 0 0 0 0-3.203.453.453 0 0 0-.641.641 1.36 1.36 0 0 1 0 1.921.454.454 0 0 0 0 .642zM18.932 7.823a.453.453 0 0 0 .319.77c.12 0 .235-.046.32-.13a5.89 5.89 0 0 0 0-8.33.453.453 0 0 0-.771.32c0 .12.047.235.132.32a4.983 4.983 0 0 1 0 7.05zM9.969 20.39a.453.453 0 0 0 .453.454h6.344a.453.453 0 0 0 0-.907h-6.344a.453.453 0 0 0-.453.454zM15.406 22.656H9.062a.453.453 0 0 0 0 .907h6.344a.453.453 0 1 0 0-.907zM14.047 25.375H7.703a.453.453 0 1 0 0 .906h6.344a.453.453 0 1 0 0-.906z"/></g><defs><clipPath id="a"><path fill="#fff" d="M0 0h29v29H0z"/></clipPath></defs></svg>