<svg width="103" height="89" fill="none" xmlns="http://www.w3.org/2000/svg"><circle cx="100.996" cy="1.935" r="1.935" transform="rotate(90 100.996 1.935)" fill="#00C5DE"/><circle cx="100.996" cy="18.961" r="1.935" transform="rotate(90 100.996 18.96)" fill="#00C5DE"/><circle cx="100.996" cy="35.987" r="1.935" transform="rotate(90 100.996 35.987)" fill="#00C5DE"/><circle cx="100.996" cy="53.013" r="1.935" transform="rotate(90 100.996 53.013)" fill="#00C5DE"/><circle cx="100.996" cy="70.039" r="1.935" transform="rotate(90 100.996 70.04)" fill="#00C5DE"/><circle cx="100.996" cy="87.065" r="1.935" transform="rotate(90 100.996 87.065)" fill="#00C5DE"/><circle cx="87.066" cy="1.935" r="1.935" transform="rotate(90 87.066 1.935)" fill="#00C5DE"/><circle cx="87.066" cy="18.961" r="1.935" transform="rotate(90 87.066 18.96)" fill="#00C5DE"/><circle cx="87.066" cy="35.987" r="1.935" transform="rotate(90 87.066 35.987)" fill="#00C5DE"/><circle cx="87.066" cy="53.013" r="1.935" transform="rotate(90 87.066 53.013)" fill="#00C5DE"/><circle cx="87.066" cy="70.039" r="1.935" transform="rotate(90 87.066 70.04)" fill="#00C5DE"/><circle cx="87.066" cy="87.065" r="1.935" transform="rotate(90 87.066 87.065)" fill="#00C5DE"/><circle cx="72.362" cy="1.935" r="1.935" transform="rotate(90 72.362 1.935)" fill="#00C5DE"/><circle cx="72.362" cy="18.961" r="1.935" transform="rotate(90 72.362 18.96)" fill="#00C5DE"/><circle cx="72.362" cy="35.987" r="1.935" transform="rotate(90 72.362 35.987)" fill="#00C5DE"/><circle cx="72.362" cy="53.013" r="1.935" transform="rotate(90 72.362 53.013)" fill="#00C5DE"/><circle cx="72.362" cy="70.039" r="1.935" transform="rotate(90 72.362 70.04)" fill="#00C5DE"/><circle cx="72.362" cy="87.065" r="1.935" transform="rotate(90 72.362 87.065)" fill="#00C5DE"/><circle cx="58.431" cy="1.935" r="1.935" transform="rotate(90 58.43 1.935)" fill="#00C5DE"/><circle cx="58.431" cy="18.961" r="1.935" transform="rotate(90 58.43 18.96)" fill="#00C5DE"/><circle cx="58.431" cy="35.987" r="1.935" transform="rotate(90 58.43 35.987)" fill="#00C5DE"/><circle cx="58.431" cy="53.013" r="1.935" transform="rotate(90 58.43 53.013)" fill="#00C5DE"/><circle cx="58.431" cy="70.039" r="1.935" transform="rotate(90 58.43 70.04)" fill="#00C5DE"/><circle cx="58.431" cy="87.065" r="1.935" transform="rotate(90 58.43 87.065)" fill="#00C5DE"/><circle cx="44.501" cy="1.935" r="1.935" transform="rotate(90 44.5 1.935)" fill="#00C5DE"/><circle cx="44.501" cy="18.961" r="1.935" transform="rotate(90 44.5 18.96)" fill="#00C5DE"/><circle cx="44.501" cy="35.987" r="1.935" transform="rotate(90 44.5 35.987)" fill="#00C5DE"/><circle cx="44.501" cy="53.013" r="1.935" transform="rotate(90 44.5 53.013)" fill="#00C5DE"/><circle cx="44.501" cy="70.039" r="1.935" transform="rotate(90 44.5 70.04)" fill="#00C5DE"/><circle cx="44.501" cy="87.065" r="1.935" transform="rotate(90 44.5 87.065)" fill="#00C5DE"/><circle cx="30.571" cy="1.935" r="1.935" transform="rotate(90 30.57 1.935)" fill="#00C5DE"/><circle cx="30.571" cy="18.961" r="1.935" transform="rotate(90 30.57 18.96)" fill="#00C5DE"/><circle cx="30.571" cy="35.987" r="1.935" transform="rotate(90 30.57 35.987)" fill="#00C5DE"/><circle cx="30.571" cy="53.013" r="1.935" transform="rotate(90 30.57 53.013)" fill="#00C5DE"/><circle cx="30.571" cy="70.039" r="1.935" transform="rotate(90 30.57 70.04)" fill="#00C5DE"/><circle cx="30.571" cy="87.065" r="1.935" transform="rotate(90 30.57 87.065)" fill="#00C5DE"/><circle cx="15.866" cy="1.935" r="1.935" transform="rotate(90 15.866 1.935)" fill="#00C5DE"/><circle cx="15.866" cy="18.961" r="1.935" transform="rotate(90 15.866 18.96)" fill="#00C5DE"/><circle cx="15.866" cy="35.987" r="1.935" transform="rotate(90 15.866 35.987)" fill="#00C5DE"/><circle cx="15.866" cy="53.013" r="1.935" transform="rotate(90 15.866 53.013)" fill="#00C5DE"/><circle cx="15.866" cy="70.039" r="1.935" transform="rotate(90 15.866 70.04)" fill="#00C5DE"/><circle cx="15.866" cy="87.065" r="1.935" transform="rotate(90 15.866 87.065)" fill="#00C5DE"/><circle cx="1.935" cy="1.935" r="1.935" transform="rotate(90 1.935 1.935)" fill="#00C5DE"/><circle cx="1.935" cy="18.961" r="1.935" transform="rotate(90 1.935 18.96)" fill="#00C5DE"/><circle cx="1.935" cy="35.987" r="1.935" transform="rotate(90 1.935 35.987)" fill="#00C5DE"/><circle cx="1.935" cy="53.013" r="1.935" transform="rotate(90 1.935 53.013)" fill="#00C5DE"/><circle cx="1.935" cy="70.039" r="1.935" transform="rotate(90 1.935 70.04)" fill="#00C5DE"/><circle cx="1.935" cy="87.065" r="1.935" transform="rotate(90 1.935 87.065)" fill="#00C5DE"/></svg>