<svg width="25" height="25" fill="none" xmlns="http://www.w3.org/2000/svg"><g clip-path="url(#a)" fill="#fff"><path d="M22.559 4.492h-2.051v-2.05A2.444 2.444 0 0 0 18.066 0H2.441A2.444 2.444 0 0 0 0 2.441v15.625a2.444 2.444 0 0 0 2.441 2.442h2.051v2.05A2.444 2.444 0 0 0 6.934 25h15.625A2.444 2.444 0 0 0 25 22.559V6.934a2.444 2.444 0 0 0-2.441-2.442zM2.44 19.532a1.467 1.467 0 0 1-1.464-1.466V2.441c0-.807.657-1.464 1.464-1.464h15.625c.808 0 1.465.657 1.465 1.464v15.625c0 .808-.657 1.465-1.465 1.465H2.441zm21.582 3.027c0 .807-.657 1.464-1.464 1.464H6.934a1.466 1.466 0 0 1-1.465-1.464v-2.051h12.597a2.444 2.444 0 0 0 2.442-2.442V5.47h2.05c.808 0 1.465.657 1.465 1.465v15.625z"/><path d="M6.946 22.314h-.013a.488.488 0 1 0 0 .977h.013a.488.488 0 1 0 0-.977zM22.56 22.314H8.349a.488.488 0 1 0 0 .977h14.21a.488.488 0 0 0 0-.977zM5.373 1.709h-.014a.488.488 0 1 0 0 .977h.014a.488.488 0 1 0 0-.977zM3.957 1.709H2.44a.488.488 0 1 0 0 .977h1.516a.488.488 0 0 0 0-.977zM14.33 9.82a1.654 1.654 0 0 0-.777-1.009l-2.389-1.379a1.586 1.586 0 0 0-.072-.044L8.709 6.012a1.673 1.673 0 0 0-2.59 1.396v5.694c0 .02.002.04.004.059a1.67 1.67 0 0 0 1.669 1.61c.292 0 .58-.078.834-.225l2.466-1.423a.504.504 0 0 0 .04-.026l2.403-1.388a1.666 1.666 0 0 0 .795-1.888zm-1.01.779a.689.689 0 0 1-.263.259l-.007.004-2.448 1.413a.478.478 0 0 0-.04.026l-2.425 1.4a.691.691 0 0 1-1.038-.598.48.48 0 0 0-.003-.05V7.408a.695.695 0 0 1 1.111-.558l2.397 1.384a.663.663 0 0 1 .06.037l2.401 1.386c.16.092.274.24.322.418a.685.685 0 0 1-.067.524z"/></g><defs><clipPath id="a"><path fill="#fff" d="M0 0h25v25H0z"/></clipPath></defs></svg>