<svg width="32" height="32" viewBox="0 0 32 32" fill="none" xmlns="http://www.w3.org/2000/svg">
<path d="M16 32C15.705 32 15.4277 31.8851 15.219 31.6765L11.2285 27.6861C11.197 27.6544 11.1551 27.6371 11.1105 27.6371H5.46716C4.85822 27.6371 4.36285 27.1418 4.36285 26.5328V20.8894C4.36285 20.8448 4.34547 20.8029 4.31397 20.7714L0.32341 16.7809C-0.107152 16.3503 -0.107152 15.6497 0.32341 15.2191L4.31397 11.2286C4.34547 11.1971 4.36285 11.1552 4.36285 11.1106V5.46719C4.36285 4.85825 4.85822 4.36287 5.46716 4.36287H11.1106C11.1552 4.36287 11.197 4.34556 11.2286 4.314L15.2191 0.323438C15.4277 0.114875 15.705 0 16 0C16.295 0 16.5723 0.114875 16.7809 0.3235L17.7805 1.32306C17.9636 1.50619 17.9636 1.80294 17.7805 1.986C17.5975 2.169 17.3007 2.169 17.1177 1.986L16.118 0.986375C16.0754 0.943875 16.0258 0.9375 16 0.9375C15.9742 0.9375 15.9245 0.943875 15.882 0.986313L11.8915 4.97694C11.6829 5.1855 11.4056 5.30037 11.1106 5.30037H5.46716C5.37516 5.30037 5.30035 5.37519 5.30035 5.46719V11.1106C5.30035 11.4056 5.18547 11.6829 4.97691 11.8916L0.98641 15.8821C0.921348 15.9471 0.921348 16.0529 0.98641 16.1181L4.97691 20.1085C5.18547 20.3171 5.30035 20.5944 5.30035 20.8894V26.5329C5.30035 26.6249 5.37516 26.6997 5.46716 26.6997H11.1106C11.4057 26.6997 11.683 26.8146 11.8916 27.0233L15.882 31.0137C15.9246 31.0562 15.9742 31.0626 16 31.0626C16.0259 31.0626 16.0755 31.0562 16.118 31.0138L20.1085 27.0232C20.317 26.8146 20.5944 26.6997 20.8894 26.6997H26.5329C26.6249 26.6997 26.6997 26.6249 26.6997 26.5329V20.8894C26.6997 20.5944 26.8145 20.3171 27.0231 20.1084L31.0136 16.1179C31.0787 16.0529 31.0787 15.9471 31.0136 15.8819L27.0231 11.8915C26.8145 11.6829 26.6997 11.4056 26.6997 11.1106V5.46719C26.6997 5.37519 26.6249 5.30037 26.5329 5.30037H20.8894C20.5944 5.30037 20.317 5.1855 20.1085 4.97694L18.6202 3.48863C18.4372 3.3055 18.4372 3.00875 18.6202 2.82569C18.8034 2.64269 19.1002 2.64269 19.2831 2.82569L20.7714 4.314C20.8029 4.34556 20.8448 4.36287 20.8894 4.36287H26.5328C27.1417 4.36287 27.6371 4.85825 27.6371 5.46719V11.1106C27.6371 11.1553 27.6545 11.1971 27.686 11.2286L31.6765 15.2191C32.107 15.6498 32.107 16.3504 31.6765 16.7809L27.6859 20.7715C27.6544 20.803 27.637 20.8449 27.637 20.8895V26.5329C27.637 27.1419 27.1417 27.6373 26.5327 27.6373H20.8894C20.8448 27.6373 20.803 27.6546 20.7715 27.6861L16.7809 31.6767C16.5723 31.8851 16.295 32 16 32Z" fill="white"/>
<path d="M10.4811 3.14478C10.2971 3.14478 10.1226 3.03584 10.0478 2.85528L9.34244 1.15235C9.24338 0.913158 9.35694 0.638971 9.59613 0.539908C9.83538 0.440971 10.1095 0.554346 10.2086 0.793596L10.9139 2.49653C11.013 2.73572 10.8994 3.00991 10.6603 3.10897C10.6016 3.13328 10.5408 3.14478 10.4811 3.14478Z" fill="white"/>
<path d="M22.2247 31.4959C22.0408 31.4959 21.8662 31.387 21.7915 31.2064L21.0861 29.5034C20.987 29.2643 21.1006 28.9901 21.3398 28.891C21.579 28.792 21.8532 28.9054 21.9522 29.1447L22.6576 30.8476C22.7567 31.0868 22.6431 31.361 22.4039 31.4601C22.3452 31.4843 22.2845 31.4959 22.2247 31.4959Z" fill="white"/>
<path d="M9.77532 31.4959C9.71551 31.4959 9.65482 31.4844 9.59613 31.46C9.35694 31.361 9.24338 31.0868 9.34244 30.8476L10.0478 29.1447C10.1469 28.9055 10.421 28.7917 10.6603 28.891C10.8994 28.99 11.013 29.2642 10.9139 29.5034L10.2086 31.2064C10.1338 31.3868 9.95926 31.4959 9.77532 31.4959Z" fill="white"/>
<path d="M21.519 3.14487C21.4592 3.14487 21.3985 3.13337 21.3398 3.10906C21.1006 3.00999 20.987 2.73581 21.0861 2.49662L21.7915 0.793684C21.8905 0.554559 22.1647 0.440809 22.4039 0.539996C22.6431 0.639059 22.7567 0.913246 22.6576 1.15243L21.9522 2.85537C21.8775 3.03587 21.7029 3.14487 21.519 3.14487Z" fill="white"/>
<path d="M29.324 10.9499C29.1401 10.9499 28.9656 10.8409 28.8908 10.6604C28.7917 10.4212 28.9053 10.147 29.1445 10.0479L30.8474 9.34257C31.0865 9.24351 31.3608 9.35701 31.4598 9.59626C31.5589 9.83545 31.4453 10.1096 31.2062 10.2087L29.5032 10.9141C29.4446 10.9384 29.3838 10.9499 29.324 10.9499Z" fill="white"/>
<path d="M0.972958 22.6933C0.789021 22.6933 0.614458 22.5843 0.539708 22.4038C0.440646 22.1646 0.554208 21.8904 0.793396 21.7913L2.49633 21.086C2.73546 20.987 3.00964 21.1004 3.10877 21.3396C3.20783 21.5788 3.09427 21.853 2.85508 21.9521L1.15215 22.6575C1.09352 22.6817 1.03277 22.6933 0.972958 22.6933Z" fill="white"/>
<path d="M2.67552 10.9498C2.61571 10.9498 2.55496 10.9383 2.49633 10.914L0.793396 10.2086C0.554208 10.1096 0.440646 9.83538 0.539708 9.5962C0.638771 9.35707 0.913083 9.24326 1.15215 9.34251L2.85508 10.0479C3.09427 10.1469 3.20783 10.4211 3.10877 10.6603C3.03402 10.8408 2.85946 10.9498 2.67552 10.9498Z" fill="white"/>
<path d="M31.0266 22.6932C30.9668 22.6932 30.906 22.6817 30.8474 22.6574L29.1445 21.952C28.9053 21.853 28.7917 21.5788 28.8908 21.3396C28.9898 21.1005 29.2641 20.9867 29.5032 21.0859L31.2062 21.7913C31.4453 21.8903 31.5589 22.1645 31.4598 22.4037C31.3851 22.5842 31.2105 22.6932 31.0266 22.6932Z" fill="white"/>
<path d="M15.9998 24.9856C11.0451 24.9856 7.01416 20.9546 7.01416 16C7.01416 11.0453 11.0451 7.01428 15.9998 7.01428C20.9546 7.01428 24.9855 11.0453 24.9855 16C24.9855 17.9373 24.3782 19.7828 23.2292 21.3369C23.0753 21.545 22.7818 21.589 22.5736 21.4351C22.3654 21.2812 22.3215 20.9877 22.4753 20.7795C23.5042 19.388 24.048 17.7353 24.048 16C24.048 11.5622 20.4375 7.95178 15.9998 7.95178C11.562 7.95178 7.95166 11.5622 7.95166 16C7.95166 20.4378 11.562 24.0481 15.9998 24.0481C17.8512 24.0481 19.6587 23.404 21.0896 22.2343C21.2901 22.0705 21.5854 22.1002 21.7492 22.3006C21.913 22.501 21.8833 22.7964 21.6829 22.9602C20.0851 24.2664 18.0668 24.9856 15.9998 24.9856Z" fill="white"/>
<path d="M15.4977 22.9687C15.4563 22.9687 15.4146 22.9664 15.3731 22.9618C11.8259 22.5672 9.15088 19.5743 9.15088 16C9.15088 12.4258 11.8259 9.43298 15.3731 9.03829C15.6917 9.00279 16.0112 9.10498 16.2499 9.31854C16.4881 9.53161 16.6247 9.83717 16.6247 10.1567V17.7916C16.6247 18.0505 16.4148 18.2604 16.1559 18.2604C15.8971 18.2604 15.6872 18.0505 15.6872 17.7916V10.1567C15.6872 10.0839 15.6481 10.0381 15.6248 10.0172C15.6011 9.99617 15.5506 9.96192 15.4768 9.97011C12.4049 10.3119 10.0884 12.9042 10.0884 16C10.0884 19.0959 12.4049 21.6883 15.4768 22.03C15.5509 22.0387 15.6011 22.004 15.6248 21.9829C15.6481 21.962 15.6872 21.9162 15.6872 21.8434V19.9167C15.6872 19.6578 15.8971 19.448 16.1559 19.448C16.4148 19.448 16.6247 19.6578 16.6247 19.9167V21.8434C16.6247 22.1629 16.4881 22.4684 16.2499 22.6815C16.0424 22.8672 15.7737 22.9687 15.4977 22.9687Z" fill="white"/>
</svg>
