<svg width="37" height="31" viewBox="0 0 37 31" fill="none" xmlns="http://www.w3.org/2000/svg">
<path d="M28.4588 0.00104294C30.7148 0.00351924 32.8777 0.900808 34.4729 2.49604C36.0681 4.09128 36.9654 6.25417 36.9679 8.51017C36.9679 8.5242 36.9679 8.53875 36.9679 8.55278C36.9679 8.58085 36.9715 8.62294 36.9746 8.67855C37.1493 11.7687 36.6441 20.1121 28.2025 30.8029C28.1265 30.8989 28.019 30.965 27.899 30.9895C27.779 31.014 27.6542 30.9953 27.5467 30.9368C27.4391 30.8782 27.3557 30.7836 27.3111 30.6695C27.2665 30.5555 27.2636 30.4293 27.3029 30.3133C27.3268 30.2427 29.6338 23.3321 28.0575 17.0089C25.8374 16.9047 23.7461 15.936 22.231 14.3099C20.7158 12.6838 19.897 10.5294 19.9497 8.30743C20.0024 6.08545 20.9223 3.97229 22.5129 2.41983C24.1034 0.867364 26.2382 -0.00115213 28.4608 4.09966e-06L28.4588 0.00104294ZM35.9285 8.48055C35.9227 7.00443 35.4797 5.56311 34.6555 4.33855C33.8312 3.114 32.6626 2.16112 31.2972 1.60021C29.9318 1.03931 28.4308 0.895529 26.9837 1.18703C25.5367 1.47853 24.2084 2.19223 23.1667 3.23804C22.1249 4.28385 21.4164 5.61487 21.1305 7.06305C20.8446 8.51123 20.9943 10.0116 21.5605 11.3749C22.1267 12.7381 23.0841 13.903 24.3118 14.7225C25.5396 15.542 26.9826 15.9794 28.4588 15.9794C28.5726 15.9794 28.6832 16.0168 28.7737 16.0858C28.8642 16.1548 28.9296 16.2516 28.9598 16.3613C30.1551 20.7113 29.5688 25.2743 28.9748 28.0433C35.6707 18.6636 36.0911 11.5042 35.9347 8.73676C35.9277 8.65155 35.9256 8.566 35.9285 8.48055V8.48055Z" fill="#5C36CA"/>
<path d="M9.13259 0.00104294C11.3886 0.00351924 13.5515 0.900808 15.1467 2.49604C16.7419 4.09128 17.6392 6.25417 17.6417 8.51017C17.6417 8.5242 17.6417 8.53875 17.6417 8.55278C17.6417 8.58085 17.6453 8.62294 17.6485 8.67855C17.8231 11.7687 17.3179 20.1121 8.87637 30.8029C8.80035 30.8989 8.69286 30.965 8.57286 30.9895C8.45287 31.014 8.32808 30.9953 8.2205 30.9368C8.11293 30.8782 8.02949 30.7836 7.98489 30.6695C7.9403 30.5555 7.93742 30.4293 7.97676 30.3133C8.00067 30.2427 10.3076 23.3321 8.73138 17.0089C6.51122 16.9047 4.41995 15.936 2.90478 14.3099C1.38962 12.6838 0.570825 10.5294 0.62351 8.30743C0.676194 6.08545 1.59617 3.97229 3.18671 2.41983C4.77724 0.867364 6.91207 -0.00115213 9.13467 4.09966e-06L9.13259 0.00104294ZM16.6023 8.48055C16.5966 7.00443 16.1536 5.56311 15.3293 4.33855C14.505 3.114 13.3364 2.16112 11.971 1.60021C10.6056 1.03931 9.10462 0.895529 7.65756 1.18703C6.2105 1.47853 4.88225 2.19223 3.8405 3.23804C2.79875 4.28385 2.09022 5.61487 1.80435 7.06305C1.51848 8.51123 1.66809 10.0116 2.2343 11.3749C2.80051 12.7381 3.75793 13.903 4.98568 14.7225C6.21343 15.542 7.65646 15.9794 9.13259 15.9794C9.2464 15.9794 9.35706 16.0168 9.44756 16.0858C9.53807 16.1548 9.60342 16.2516 9.63358 16.3613C10.8289 20.7113 10.2427 25.2743 9.64865 28.0433C16.3445 18.6636 16.7655 11.5042 16.6091 8.73676C16.6018 8.65156 16.5996 8.56601 16.6023 8.48055V8.48055Z" fill="#5C36CA"/>
</svg>
