<svg width="28" height="28" viewBox="0 0 28 28" fill="none" xmlns="http://www.w3.org/2000/svg">
<g clip-path="url(#clip0_16_636)">
<path d="M10.5047 19.662C11.163 19.9374 11.9179 19.8769 12.5238 19.4998L13.8587 18.6692C13.9407 18.6181 14.0437 18.6165 14.1273 18.6647L15.7976 19.6283C16.1388 19.8253 16.5195 19.9243 16.901 19.9243C17.2323 19.9243 17.5643 19.8496 17.8716 19.6993L20.799 18.2674C21.704 17.8247 22.1185 16.7799 21.763 15.8372L21.3688 14.7915C21.0853 14.0396 20.3549 13.5344 19.5512 13.5344H8.40585C7.56843 13.5344 6.82785 14.0682 6.5631 14.8626L6.21159 15.917C5.89191 16.8761 6.37207 17.9331 7.30472 18.3233L10.5047 19.662ZM6.99095 16.1769L7.34246 15.1224C7.49526 14.664 7.92262 14.356 8.40585 14.356H19.5512C20.015 14.356 20.4365 14.6475 20.6001 15.0814L20.9943 16.1271C21.1995 16.6711 20.9603 17.2739 20.438 17.5294L17.5106 18.9613C17.0954 19.1644 16.6085 19.1477 16.2081 18.9168L14.5379 17.9532C14.3699 17.8562 14.1831 17.8079 13.9966 17.8079C13.7981 17.8079 13.5998 17.8626 13.4246 17.9717L12.0898 18.8023C11.7093 19.039 11.2353 19.0772 10.8218 18.9041L7.62178 17.5654C7.08357 17.3402 6.80649 16.7303 6.99095 16.1769Z" fill="white"/>
<path d="M8.87788 16.9951C9.22062 17.2392 9.69169 17.4235 10.2045 17.5139C10.4437 17.5561 10.6734 17.5763 10.8891 17.5763C11.773 17.5763 12.4224 17.2364 12.522 16.6713C12.5609 16.4507 12.5394 16.019 11.9591 15.6055C11.6164 15.3614 11.1453 15.1772 10.6325 15.0868C9.41363 14.8717 8.43896 15.2263 8.31502 15.9294C8.27602 16.1499 8.29744 16.5816 8.87788 16.9951ZM9.9588 15.8468C10.1153 15.8468 10.2926 15.861 10.4898 15.8958C11.3341 16.0447 11.7065 16.4247 11.7127 16.5285C11.6714 16.624 11.1914 16.8537 10.3471 16.7049C9.49808 16.5552 9.1262 16.1718 9.12352 16.0738C9.15172 16.0011 9.4415 15.8468 9.9588 15.8468Z" fill="white"/>
<path d="M17.111 17.5762C17.3266 17.5762 17.5564 17.556 17.7956 17.5138C18.3083 17.4234 18.7794 17.2391 19.1222 16.995C19.7026 16.5816 19.724 16.1498 19.685 15.9293C19.561 15.2261 18.5866 14.8716 17.3675 15.0866C16.8548 15.177 16.3837 15.3613 16.0409 15.6054C15.4605 16.0189 15.4391 16.4506 15.4781 16.6711C15.5777 17.2364 16.2269 17.5762 17.111 17.5762ZM17.5102 15.8957C17.7074 15.8609 17.8847 15.8467 18.0412 15.8467C18.5547 15.8467 18.8441 15.9988 18.8757 16.072C18.8696 16.1759 18.4972 16.5558 17.6529 16.7048C16.8037 16.8545 16.3233 16.6213 16.2872 16.5301C16.2893 16.4288 16.6612 16.0454 17.5102 15.8957Z" fill="white"/>
<path d="M27.6101 24.3276V8.38618C27.6101 7.40466 26.8116 6.60619 25.8301 6.60619H21.0815C20.7033 5.63202 20.1243 4.73841 19.3703 3.98479C18.4846 3.09907 17.4185 2.45943 16.2551 2.09938C16.2093 1.57009 15.9815 1.07805 15.6008 0.696802C15.1727 0.269332 14.6042 0.0339355 14 0.0339355C13.3958 0.0339355 12.8273 0.269332 12.3987 0.69724C12.0181 1.07843 11.7903 1.57108 11.7448 2.10096C9.5347 2.78656 7.75061 4.45367 6.91659 6.60619H2.16994C1.18843 6.60619 0.389954 7.40466 0.389954 8.38618V12.3021C0.389954 12.5291 0.573813 12.7129 0.80072 12.7129C1.02763 12.7129 1.21149 12.5291 1.21149 12.3021V8.38618C1.21149 7.85771 1.64148 7.42772 2.16994 7.42772H6.65162C6.55446 7.80037 6.4843 8.1843 6.44443 8.5777C5.73484 8.67662 5.18683 9.28712 5.18683 10.0235V10.8694C5.18683 11.6746 5.84181 12.3295 6.64691 12.3295H21.3532C22.1583 12.3295 22.8133 11.6746 22.8133 10.8694V10.0235C22.8133 9.28696 22.2651 8.67645 21.5553 8.57765C21.5155 8.18753 21.4458 7.80322 21.3475 7.42772H25.8301C26.3585 7.42772 26.7885 7.85771 26.7885 8.38618V23.7408C26.6017 23.6753 26.4011 23.6393 26.1921 23.6393H1.80792C1.59898 23.6393 1.39836 23.6753 1.21149 23.7408V14.2191C1.21149 13.9921 1.02763 13.8083 0.80072 13.8083C0.573813 13.8083 0.389954 13.9921 0.389954 14.2191V24.3276C0.146123 24.6357 0 25.0246 0 25.4472V26.1581C0 27.155 0.811071 27.966 1.80792 27.966H21.4776C21.7045 27.966 21.8884 27.7822 21.8884 27.5553C21.8884 27.3283 21.7045 27.1445 21.4776 27.1445H1.80792C1.26401 27.1445 0.821532 26.702 0.821532 26.1581V25.4472C0.821532 24.9033 1.26401 24.4608 1.80792 24.4608H8.03157V25.3097C8.03157 25.8382 8.46156 26.2682 8.99003 26.2682H19.0127C19.5412 26.2682 19.9712 25.8382 19.9712 25.3097V24.4608H26.1921C26.736 24.4608 27.1785 24.9033 27.1785 25.4472V26.1581C27.1785 26.702 26.736 27.1445 26.1921 27.1445H23.3945C23.1676 27.1445 22.9837 27.3283 22.9837 27.5553C22.9837 27.7822 23.1676 27.966 23.3945 27.966H26.1921C27.1889 27.966 28 27.155 28 26.1581V25.4472C28 25.0246 27.8539 24.6357 27.6101 24.3276ZM12.9796 1.27817C13.2526 1.00559 13.615 0.855467 14 0.855467C14.385 0.855467 14.7474 1.00559 15.0199 1.27768C15.1922 1.45026 15.3154 1.65854 15.3828 1.88561C14.9312 1.80297 14.4689 1.76025 14 1.76025C13.528 1.76025 13.0658 1.80384 12.6169 1.88638C12.6843 1.65904 12.8075 1.45059 12.9796 1.27817ZM14 2.58178C15.8091 2.58178 17.51 3.28633 18.7894 4.56583C19.8725 5.64845 20.5511 7.05458 20.7271 8.56335H7.27286C7.66588 5.17596 10.5409 2.58178 14 2.58178ZM21.9917 10.0235V10.8694C21.9917 11.2216 21.7053 11.508 21.3532 11.508H6.64685C6.29474 11.508 6.0083 11.2216 6.0083 10.8694V10.0235C6.0083 9.67133 6.29474 9.38489 6.64685 9.38489H21.3532C21.7053 9.38483 21.9917 9.67133 21.9917 10.0235ZM19.1496 25.3097C19.1496 25.3853 19.0882 25.4467 19.0127 25.4467H8.99003C8.9145 25.4467 8.8531 25.3853 8.8531 25.3097V24.4608H19.1496V25.3097Z" fill="white"/>
</g>
<defs>
<clipPath id="clip0_16_636">
<rect width="28" height="28" fill="white"/>
</clipPath>
</defs>
</svg>
