<svg width="66" height="70" viewBox="0 0 66 70" fill="none" xmlns="http://www.w3.org/2000/svg">
<path d="M65.0013 18.1297L65.001 18.1295L63.0323 17.0358L63.2751 16.5987L59.3376 14.4112L59.0948 14.8483L55.1573 12.6608L55.4001 12.2237L51.4626 10.0362L51.2198 10.4733L47.2823 8.28578L47.5251 7.84871L43.5876 5.66121L43.3448 6.09829L39.4073 3.91079L39.6501 3.47371L35.7127 1.28621L35.4698 1.72329L33.5011 0.629544C33.424 0.586712 33.3426 0.5545 33.2591 0.532906L33.3842 0.0488114C33.1324 -0.0162706 32.8675 -0.0162704 32.6157 0.0488119L32.7408 0.532906C32.6572 0.554501 32.5759 0.586712 32.4988 0.629553M65.0013 18.1297L32.4988 0.629553M65.0013 18.1297C65.0782 18.1723 65.1472 18.2237 65.2078 18.2818L65.5542 17.9213C65.7425 18.1022 65.8782 18.3285 65.9475 18.5765L65.466 18.7111C65.4883 18.7908 65.5 18.8738 65.5 18.9583C65.5 18.9584 65.5 18.9584 65.5 18.9585V21.6319H66V26.9792H65.5V32.3264H66V37.6736H65.5V43.0208H66V48.368H65.5V51.0417C65.5 51.1262 65.4883 51.2092 65.4661 51.2889L65.9476 51.4235C65.8783 51.6714 65.7426 51.8978 65.5543 52.0787L65.2079 51.7181C65.1474 51.7763 65.0783 51.8277 65.0014 51.8703L65.0012 51.8704L63.0324 52.9642L63.2753 53.4013L59.3378 55.5888L59.0949 55.1517L55.1574 57.3392L55.4003 57.7763L51.4628 59.9638L51.2199 59.5267L47.2825 61.7142L47.5253 62.1513L43.5878 64.3388L43.345 63.9017L39.4075 66.0892L39.6503 66.5263L35.7128 68.7138L35.47 68.2767L33.5012 69.3704L33.744 69.8075L33.5012 69.3704C33.4626 69.3919 33.4232 69.4106 33.3831 69.4266L33.5688 69.8909C33.4476 69.9393 33.3217 69.9717 33.1937 69.9878L33.131 69.4918C33.0878 69.4972 33.044 69.5 33 69.5C32.956 69.5 32.9122 69.4972 32.869 69.4918L32.8063 69.9878C32.6783 69.9717 32.5524 69.9393 32.4312 69.8909L32.6169 69.4266C32.5768 69.4106 32.5374 69.3919 32.4988 69.3704L32.256 69.8075L32.4988 69.3704L30.53 68.2767L30.2872 68.7138L26.3497 66.5263L26.5925 66.0892L22.655 63.9017L22.4122 64.3388L18.4747 62.1513L18.7175 61.7142L14.7801 59.5267L14.5372 59.9638L10.5997 57.7763L10.8426 57.3392L6.90506 55.1517L6.66224 55.5888L2.72475 53.4013L2.96757 52.9642L0.99882 51.8704L0.998555 51.8703C0.921706 51.8277 0.852614 51.7763 0.792088 51.7181L0.445682 52.0787C0.257411 51.8978 0.121694 51.6714 0.0523982 51.4235L0.533942 51.2889C0.511654 51.2092 0.5 51.1262 0.5 51.0417V48.368H0V43.0208H0.5V37.6736H0V32.3264H0.5V26.9792H0V21.6319H0.5V18.9583C0.5 18.8738 0.511654 18.7908 0.533942 18.7111L0.0523985 18.5765C0.121694 18.3285 0.257411 18.1022 0.445682 17.9213L0.792089 18.2818C0.852615 18.2237 0.921707 18.1723 0.998555 18.1297L0.99882 18.1295L2.96757 17.0358L2.72475 16.5987L6.66224 14.4112L6.90506 14.8483L10.8426 12.6608L10.5997 12.2237L14.5372 10.0362L14.7801 10.4733L18.7175 8.28578L18.4747 7.8487L22.4122 5.66121L22.655 6.09829L26.5925 3.91079L26.3497 3.47371L30.2872 1.28621L30.53 1.72329L32.4988 0.629553M65.0013 18.1297L32.256 0.192466L32.4988 0.629553" stroke="#7D53F8" stroke-dasharray="5 5"/>
</svg>
