<svg width="57" height="57" viewBox="0 0 57 57" fill="none" xmlns="http://www.w3.org/2000/svg">
<circle cx="34.501" cy="12.5002" r="11.5" fill="#00C5DE"/>
<path d="M5.43066 50.677H7.24055V52.4869H5.43066V50.677Z" fill="white"/>
<path d="M9.05029 50.677H10.8602V52.4869H9.05029V50.677Z" fill="white"/>
<path d="M12.6699 50.677H14.4798V52.4869H12.6699V50.677Z" fill="white"/>
<path d="M43.438 50.677H50.6775V52.4869H43.438V50.677Z" fill="white"/>
<path d="M54.2974 47.0572V17.1941C54.2974 14.6993 52.2675 12.6694 49.7727 12.6694H47.0579C47.0579 5.68308 41.3751 0.000244141 34.3887 0.000244141C27.4024 0.000244141 21.7196 5.68308 21.7196 12.6694H6.33556C3.84079 12.6694 1.81086 14.6993 1.81086 17.1941V47.0572H0.000976562V51.5819C0.000976562 54.0766 2.03091 56.1066 4.52568 56.1066H51.5826C54.0774 56.1066 56.1073 54.0766 56.1073 51.5819V47.0572H54.2974ZM49.7727 14.4793C51.2693 14.4793 52.4875 15.6975 52.4875 17.1941V47.0572H50.6777V18.0991C50.6777 17.1009 49.866 16.2892 48.8678 16.2892H46.5241C46.6987 15.7028 46.8246 15.0975 46.913 14.4793H49.7727ZM24.0553 9.34393L33.6601 13.3464L36.9489 23.211C36.1261 23.4112 35.272 23.5287 34.3887 23.5287C28.4006 23.5287 23.5294 18.6576 23.5294 12.6694C23.5294 11.5091 23.7168 10.3925 24.0553 9.34393ZM38.6682 22.6463L35.424 12.9138L42.6724 5.66496C44.2759 7.55747 45.248 10.0005 45.248 12.6694C45.248 17.138 42.5332 20.9822 38.6682 22.6463ZM34.3887 1.81013C37.0576 1.81013 39.5007 2.78223 41.3941 4.38488L34.178 11.6005L24.7565 7.67589C26.5673 4.19576 30.2016 1.81013 34.3887 1.81013ZM3.62074 17.1941C3.62074 15.6975 4.83896 14.4793 6.33556 14.4793H21.8645C21.9529 15.0975 22.0779 15.7028 22.2533 16.2892H7.2405C6.24233 16.2892 5.43062 17.1009 5.43062 18.0991V47.0572H3.62074V17.1941ZM54.2974 51.5819C54.2974 53.0785 53.0792 54.2967 51.5826 54.2967H4.52568C3.02908 54.2967 1.81086 53.0785 1.81086 51.5819V48.867H20.4545C21.7558 50.0371 23.4207 50.6769 25.1847 50.6769H30.9245C32.6884 50.6769 34.3534 50.0371 35.6547 48.867H47.0579V47.0572H34.919L34.6538 47.3223C33.6574 48.3187 32.3336 48.867 30.9236 48.867H25.1838C23.7747 48.867 22.45 48.3187 21.4536 47.3223L21.1893 47.0572H7.2405V18.0991H22.9594C24.9982 22.3723 29.3475 25.3386 34.3887 25.3386C39.43 25.3386 43.7793 22.3723 45.818 18.0991H48.8678V48.867H54.2974V51.5819Z" fill="white"/>
<path d="M44.343 38.008C43.7876 38.008 43.2706 38.1772 42.8398 38.4648L39.6826 36.0978C39.763 35.8415 39.8183 35.5746 39.8183 35.2931C39.8183 33.7965 38.6001 32.5783 37.1035 32.5783C35.6069 32.5783 34.3886 33.7965 34.3886 35.2931C34.3886 35.6046 34.4518 35.8994 34.5486 36.1782L29.4804 40.2332C29.065 39.9743 28.579 39.8178 28.054 39.8178C27.4452 39.8178 26.8884 40.0268 26.4351 40.3662L22.5329 37.7645C22.5873 37.5519 22.6244 37.3328 22.6244 37.103C22.6244 35.6064 21.4062 34.3882 19.9096 34.3882C18.413 34.3882 17.1948 35.6064 17.1948 37.103C17.1948 37.3328 17.2319 37.5519 17.2862 37.7645L13.3841 40.3662C12.9308 40.026 12.374 39.8178 11.7651 39.8178C10.2685 39.8178 9.05029 41.0361 9.05029 42.5327C9.05029 44.0293 10.2685 45.2475 11.7651 45.2475C13.2617 45.2475 14.4799 44.0293 14.4799 42.5327C14.4799 42.3029 14.4428 42.0837 14.3885 41.8712L18.2906 39.2695C18.7439 39.6097 19.3007 39.8178 19.9096 39.8178C20.5185 39.8178 21.0752 39.6097 21.5286 39.2695L25.4307 41.8712C25.3763 42.0837 25.3392 42.3038 25.3392 42.5327C25.3392 44.0293 26.5574 45.2475 28.054 45.2475C29.5506 45.2475 30.7689 44.0293 30.7689 42.5327C30.7689 42.2211 30.7057 41.9264 30.6089 41.6476L35.6771 37.5926C36.0925 37.8515 36.5785 38.008 37.1035 38.008C37.6589 38.008 38.1759 37.8387 38.6067 37.5511L41.7638 39.9181C41.6834 40.1744 41.6282 40.4413 41.6282 40.7228C41.6282 42.2194 42.8464 43.4376 44.343 43.4376C45.8396 43.4376 47.0578 42.2194 47.0578 40.7228C47.0578 39.2262 45.8396 38.008 44.343 38.008ZM11.7651 43.4376C11.2667 43.4376 10.8602 43.0311 10.8602 42.5327C10.8602 42.0342 11.2667 41.6277 11.7651 41.6277C12.2635 41.6277 12.6701 42.0342 12.6701 42.5327C12.6701 43.0311 12.2635 43.4376 11.7651 43.4376ZM19.9096 38.008C19.4112 38.008 19.0046 37.6014 19.0046 37.103C19.0046 36.6046 19.4112 36.1981 19.9096 36.1981C20.408 36.1981 20.8145 36.6046 20.8145 37.103C20.8145 37.6014 20.408 38.008 19.9096 38.008ZM28.054 43.4376C27.5556 43.4376 27.1491 43.0311 27.1491 42.5327C27.1491 42.0342 27.5556 41.6277 28.054 41.6277C28.5525 41.6277 28.959 42.0342 28.959 42.5327C28.959 43.0311 28.5525 43.4376 28.054 43.4376ZM37.1035 36.1981C36.605 36.1981 36.1985 35.7916 36.1985 35.2931C36.1985 34.7947 36.605 34.3882 37.1035 34.3882C37.6019 34.3882 38.0084 34.7947 38.0084 35.2931C38.0084 35.7916 37.6019 36.1981 37.1035 36.1981ZM44.343 41.6277C43.8446 41.6277 43.438 41.2212 43.438 40.7228C43.438 40.2243 43.8446 39.8178 44.343 39.8178C44.8414 39.8178 45.2479 40.2243 45.2479 40.7228C45.2479 41.2212 44.8414 41.6277 44.343 41.6277Z" fill="white"/>
<path d="M23.5293 19.9089H9.05029V32.578H23.5293V19.9089ZM21.7195 30.7682H10.8602V21.7188H21.7195V30.7682Z" fill="white"/>
<path d="M12.6699 23.5285H19.9094V25.3384H12.6699V23.5285Z" fill="white"/>
<path d="M12.6699 27.1487H19.9094V28.9586H12.6699V27.1487Z" fill="white"/>
<path d="M25.3394 28.9581H27.1492V30.768H25.3394V28.9581Z" fill="white"/>
<path d="M28.959 28.9581H47.0578V30.768H28.959V28.9581Z" fill="white"/>
</svg>
