<svg width="31" height="31" viewBox="0 0 31 31" fill="none" xmlns="http://www.w3.org/2000/svg">
<path d="M15.5 21.829C18.6383 21.829 21.1914 19.2759 21.1914 16.1376V5.6914C21.1914 2.55313 18.6383 0 15.5 0C12.3617 0 9.80859 2.55313 9.80859 5.6914V16.1376C9.80859 19.2759 12.3617 21.829 15.5 21.829ZM15.5 1.21094C17.9706 1.21094 19.9805 3.2208 19.9805 5.6914V10.6953H11.0195V5.6914C11.0195 3.2208 13.0294 1.21094 15.5 1.21094ZM11.0195 11.9062H19.9805V16.1376C19.9805 18.6082 17.9706 20.6181 15.5 20.6181C13.0294 20.6181 11.0195 18.6082 11.0195 16.1376V11.9062Z" fill="white"/>
<path d="M14.0269 7.95044H16.9733C17.3077 7.95044 17.5788 7.6794 17.5788 7.34497C17.5788 7.01054 17.3077 6.7395 16.9733 6.7395H14.0269C13.6924 6.7395 13.4214 7.01054 13.4214 7.34497C13.4214 7.6794 13.6924 7.95044 14.0269 7.95044Z" fill="white"/>
<path d="M14.0269 5.69409H16.9733C17.3077 5.69409 17.5788 5.42305 17.5788 5.08862C17.5788 4.7542 17.3077 4.48315 16.9733 4.48315H14.0269C13.6924 4.48315 13.4214 4.7542 13.4214 5.08862C13.4214 5.42305 13.6924 5.69409 14.0269 5.69409Z" fill="white"/>
<path d="M23.2518 15.5322C22.9176 15.5322 22.6464 15.8033 22.6464 16.1377C22.6464 20.0782 19.4405 23.2841 15.4999 23.2841C11.5594 23.2841 8.35352 20.0782 8.35352 16.1377C8.35352 15.8033 8.08247 15.5322 7.74805 15.5322C7.41362 15.5322 7.14258 15.8033 7.14258 16.1377C7.14258 20.1333 9.96156 23.4825 13.7148 24.3025V27.3634H13.6672C11.9958 27.3634 10.6361 28.7231 10.6361 30.3946C10.6361 30.729 10.9071 31 11.2416 31H19.7583C20.0928 31 20.3638 30.729 20.3638 30.3946C20.3638 28.7234 19.0041 27.3634 17.3327 27.3634H17.2851V24.3025C21.0386 23.4825 23.8573 20.1333 23.8573 16.1377C23.8573 15.8033 23.5863 15.5322 23.2518 15.5322ZM19.0495 29.7891H11.9506C12.2006 29.0822 12.8756 28.5744 13.6672 28.5744H17.3329C18.1243 28.5744 18.7993 29.0822 19.0495 29.7891ZM16.0742 27.3634H14.9257V24.4749C15.1156 24.4879 15.3069 24.495 15.4999 24.495C15.6929 24.495 15.8843 24.4879 16.0742 24.4749V27.3634Z" fill="white"/>
<path d="M3.02734 5.65552C2.69292 5.65552 2.42188 5.92656 2.42188 6.26099V12.1712C2.42188 12.5053 2.69292 12.7766 3.02734 12.7766C3.36177 12.7766 3.63281 12.5053 3.63281 12.1712V6.26099C3.63281 5.92656 3.36177 5.65552 3.02734 5.65552Z" fill="white"/>
<path d="M7.87109 11.2634C8.20552 11.2634 8.47656 10.9924 8.47656 10.6579V7.77392C8.47656 7.4395 8.20552 7.16846 7.87109 7.16846C7.53667 7.16846 7.26562 7.4395 7.26562 7.77392V10.6579C7.26562 10.9924 7.53667 11.2634 7.87109 11.2634Z" fill="white"/>
<path d="M0.605469 3.26953C0.271042 3.26953 0 3.54057 0 3.875V13.9459C0 14.2803 0.271042 14.5513 0.605469 14.5513C0.939896 14.5513 1.21094 14.2803 1.21094 13.9459V3.875C1.21094 3.54057 0.939896 3.26953 0.605469 3.26953Z" fill="white"/>
<path d="M5.44922 5.04443C5.11479 5.04443 4.84375 5.31547 4.84375 5.6499V13.8339C4.84375 14.1683 5.11479 14.4394 5.44922 14.4394C5.78365 14.4394 6.05469 14.1683 6.05469 13.8339V5.6499C6.05469 5.31547 5.78365 5.04443 5.44922 5.04443Z" fill="white"/>
<path d="M27.9727 5.65552C27.6382 5.65552 27.3672 5.92656 27.3672 6.26099V12.1712C27.3672 12.5053 27.6382 12.7766 27.9727 12.7766C28.3071 12.7766 28.5781 12.5053 28.5781 12.1712V6.26099C28.5781 5.92656 28.3071 5.65552 27.9727 5.65552Z" fill="white"/>
<path d="M23.1289 11.2634C23.4633 11.2634 23.7344 10.9924 23.7344 10.6579V7.77392C23.7344 7.4395 23.4633 7.16846 23.1289 7.16846C22.7945 7.16846 22.5234 7.4395 22.5234 7.77392V10.6579C22.5234 10.9924 22.7945 11.2634 23.1289 11.2634Z" fill="white"/>
<path d="M30.3945 3.26953C30.0601 3.26953 29.7891 3.54057 29.7891 3.875V13.9459C29.7891 14.2803 30.0601 14.5513 30.3945 14.5513C30.729 14.5513 31 14.2803 31 13.9459V3.875C31 3.54057 30.729 3.26953 30.3945 3.26953Z" fill="white"/>
<path d="M25.5508 13.2288C25.3916 13.2288 25.2353 13.2931 25.1227 13.4057C25.0101 13.519 24.9453 13.6746 24.9453 13.8342C24.9453 13.9936 25.0101 14.1497 25.1227 14.2623C25.2353 14.3751 25.3916 14.4397 25.5508 14.4397C25.71 14.4397 25.8663 14.3751 25.9789 14.2623C26.0914 14.1497 26.1562 13.9936 26.1562 13.8342C26.1562 13.6746 26.0914 13.519 25.9789 13.4057C25.8663 13.2931 25.71 13.2288 25.5508 13.2288Z" fill="white"/>
<path d="M25.5508 5.04443C25.2164 5.04443 24.9453 5.31547 24.9453 5.6499V11.2632C24.9453 11.5977 25.2164 11.8687 25.5508 11.8687C25.8852 11.8687 26.1562 11.5977 26.1562 11.2632V5.6499C26.1562 5.31547 25.8852 5.04443 25.5508 5.04443Z" fill="white"/>
<path d="M15.5 19.2842C17.235 19.2842 18.6468 17.8727 18.6468 16.1377C18.6468 15.8033 18.3755 15.5322 18.0413 15.5322C17.7069 15.5322 17.4358 15.8033 17.4358 16.1377C17.4358 17.2048 16.5674 18.0733 15.5 18.0733C15.1656 18.0733 14.8945 18.3443 14.8945 18.6788C14.8945 19.0132 15.1656 19.2842 15.5 19.2842Z" fill="white"/>
<path d="M18.041 14.6523C18.2004 14.6523 18.3565 14.5875 18.4691 14.475C18.5817 14.3624 18.6465 14.206 18.6465 14.0469C18.6465 13.8877 18.5819 13.7314 18.4691 13.6188C18.3565 13.5062 18.2004 13.4414 18.041 13.4414C17.8818 13.4414 17.7257 13.5062 17.6132 13.6188C17.5006 13.7314 17.4355 13.8877 17.4355 14.0469C17.4355 14.206 17.5004 14.3624 17.6132 14.475C17.7257 14.5875 17.8818 14.6523 18.041 14.6523Z" fill="white"/>
</svg>
