<svg width="29" height="29" viewBox="0 0 29 29" fill="none" xmlns="http://www.w3.org/2000/svg">
<g clip-path="url(#clip0_16_562)">
<path d="M28.7371 19.985L28.0574 18.399C28.0336 18.344 27.9992 18.2942 27.956 18.2526C27.9128 18.211 27.8618 18.1784 27.8059 18.1566C27.7507 18.1336 27.6914 18.1217 27.6315 18.1217C27.5716 18.1217 27.5123 18.1336 27.457 18.1566L25.6445 18.9586L25.0011 18.5055C25.4745 18.3861 25.9047 18.136 26.2427 17.7838C26.5807 17.4315 26.8129 16.9913 26.9127 16.5134C27.0124 16.0356 26.9758 15.5392 26.807 15.0812C26.6382 14.6231 26.344 14.2217 25.9579 13.9229C25.5719 13.6241 25.1096 13.4398 24.6239 13.3911C24.1381 13.3425 23.6484 13.4314 23.2108 13.6477C22.7732 13.8641 22.4052 14.1991 22.1489 14.6146C21.8926 15.0301 21.7582 15.5093 21.7613 15.9975C21.7612 16.089 21.7657 16.1805 21.7749 16.2716L20.642 15.4877C20.5682 15.4361 20.4806 15.4077 20.3906 15.4061H17.2187C17.0985 15.4061 16.9833 15.4539 16.8983 15.5389C16.8133 15.6238 16.7656 15.7391 16.7656 15.8593V17.6718C16.7656 17.7919 16.8133 17.9072 16.8983 17.9922C16.9833 18.0772 17.0985 18.1249 17.2187 18.1249H19.5659L20.7213 18.9496L16.1312 28.3474C16.0973 28.4166 16.0816 28.4932 16.0856 28.5701C16.0895 28.647 16.113 28.7216 16.1538 28.7869C16.1947 28.8522 16.2514 28.9061 16.3188 28.9433C16.3862 28.9806 16.462 29.0001 16.539 28.9999H18.5781C18.6624 28.9999 18.745 28.9763 18.8166 28.9319C18.8883 28.8874 18.9461 28.8239 18.9836 28.7484L21.3308 24.054L22.1849 24.6227L20.8913 27.2123C20.857 27.2813 20.841 27.3578 20.8445 27.4347C20.8481 27.5116 20.8712 27.5864 20.9117 27.6519C20.9508 27.7197 21.0069 27.7762 21.0744 27.8159C21.1419 27.8556 21.2185 27.8772 21.2968 27.8784H23.3359C23.421 27.8784 23.5045 27.8543 23.5766 27.8091C23.6487 27.7638 23.7066 27.6991 23.7437 27.6224L25.5109 23.9747C25.5583 23.8774 25.5692 23.7663 25.5418 23.6616C25.5144 23.5569 25.4504 23.4654 25.3613 23.4038L23.1093 21.836L23.5624 20.9411L25.0532 21.9334C25.1191 21.9785 25.1956 22.0053 25.2752 22.0113C25.3548 22.0173 25.4345 22.0021 25.5063 21.9674L28.5219 20.5763C28.6274 20.5248 28.7087 20.4344 28.7489 20.3241C28.789 20.2138 28.7848 20.0922 28.7371 19.985ZM24.3667 14.2983C24.7028 14.2983 25.0313 14.3979 25.3108 14.5846C25.5902 14.7713 25.808 15.0367 25.9366 15.3472C26.0652 15.6577 26.0989 15.9994 26.0333 16.329C25.9677 16.6586 25.8059 16.9614 25.5683 17.199C25.3306 17.4366 25.0278 17.5985 24.6982 17.664C24.3686 17.7296 24.027 17.696 23.7165 17.5673C23.406 17.4387 23.1406 17.2209 22.9539 16.9415C22.7672 16.6621 22.6675 16.3335 22.6675 15.9975C22.6675 15.5468 22.8465 15.1146 23.1652 14.7959C23.4839 14.4773 23.9161 14.2983 24.3667 14.2983ZM18.2971 28.0937H17.264L19.7562 23.0005L20.5763 23.5465L18.2971 28.0937ZM25.3455 21.0385L23.6349 19.9057C23.5813 19.8701 23.5207 19.8463 23.4572 19.8359C23.3937 19.8255 23.3286 19.8288 23.2665 19.8455C23.2043 19.8622 23.1464 19.892 23.0967 19.9329C23.0469 19.9737 23.0064 20.0247 22.9779 20.0824L22.1328 21.7884C22.0846 21.8857 22.0729 21.9972 22.1 22.1024C22.127 22.2076 22.1909 22.2996 22.2801 22.3616L24.5253 23.9204L23.0527 26.9608H22.0309L23.175 24.6703C23.2238 24.5717 23.2351 24.4587 23.2068 24.3524C23.1784 24.2461 23.1124 24.1537 23.0209 24.0926L20.164 22.1804L21.7159 19.0085C21.7628 18.9124 21.7741 18.8029 21.748 18.6992C21.7219 18.5956 21.66 18.5045 21.5732 18.4421L19.9873 17.3093C19.9076 17.2495 19.8105 17.2177 19.7109 17.2186H17.6718V16.3124H20.2478L25.3432 19.8558C25.4082 19.9023 25.4844 19.9308 25.564 19.9384C25.6436 19.9459 25.7237 19.9323 25.7963 19.8989L27.414 19.1784L27.7312 19.9374L25.3455 21.0385Z" fill="white"/>
<path d="M13.5936 9.40687V6.34375H14.9529C15.0731 6.34375 15.1884 6.29601 15.2734 6.21103C15.3583 6.12606 15.4061 6.0108 15.4061 5.89062V0.453125C15.4061 0.332949 15.3583 0.217695 15.2734 0.132717C15.1884 0.0477398 15.0731 0 14.9529 0L0.452949 0C0.332773 0 0.217519 0.0477398 0.132541 0.132717C0.0475637 0.217695 -0.000176137 0.332949 -0.000176137 0.453125L-0.000176137 5.89062C-0.00254545 5.90943 -0.00254545 5.92846 -0.000176137 5.94727C-0.00254545 5.96607 -0.00254545 5.9851 -0.000176137 6.00391V22.0898C-0.000176137 22.21 0.0475637 22.3253 0.132541 22.4103C0.217519 22.4952 0.332773 22.543 0.452949 22.543C3.93727 22.543 7.27896 21.1591 9.74317 18.6958C12.2074 16.2324 13.5924 12.8912 13.5936 9.40687ZM0.906074 0.90625H14.4998V5.4375H0.906074V0.90625ZM0.906074 21.6277V6.44797H12.6873V9.39328C12.6895 12.561 11.4629 15.6061 9.26562 17.8879C7.06833 20.1697 4.07166 21.5103 0.906074 21.6277Z" fill="white"/>
<path d="M18.5783 4.3048C18.5793 4.72149 18.4977 5.13426 18.3383 5.51925C18.1788 5.90423 17.9447 6.25381 17.6493 6.54777C17.6072 6.58985 17.5738 6.63983 17.551 6.69483C17.5282 6.74984 17.5165 6.80881 17.5165 6.86835C17.5165 6.9279 17.5282 6.98687 17.551 7.04187C17.5738 7.09688 17.6072 7.14686 17.6493 7.18894C17.6914 7.23107 17.7414 7.26449 17.7964 7.2873C17.8514 7.3101 17.9104 7.32184 17.9699 7.32184C18.0295 7.32184 18.0884 7.3101 18.1435 7.2873C18.1985 7.26449 18.2484 7.23107 18.2905 7.18894C18.6694 6.81023 18.9699 6.36061 19.1749 5.86574C19.3799 5.37087 19.4854 4.84046 19.4854 4.3048C19.4854 3.76914 19.3799 3.23873 19.1749 2.74386C18.9699 2.24899 18.6694 1.79936 18.2905 1.42066C18.2506 1.37161 18.2009 1.33145 18.1446 1.30276C18.0883 1.27407 18.0265 1.25749 17.9634 1.25408C17.9003 1.25067 17.8372 1.2605 17.7781 1.28295C17.719 1.3054 17.6652 1.33997 17.6203 1.38443C17.5753 1.4289 17.5402 1.48227 17.5171 1.54113C17.494 1.59998 17.4835 1.66302 17.4863 1.72617C17.489 1.78933 17.5049 1.85122 17.533 1.90786C17.5611 1.96449 17.6007 2.01463 17.6493 2.05503C17.9453 2.34995 18.1798 2.70066 18.3392 3.08684C18.4987 3.47302 18.5799 3.887 18.5783 4.3048Z" fill="white"/>
<path d="M16.3668 5.89059C16.4089 5.93299 16.4591 5.96664 16.5143 5.98958C16.5695 6.01252 16.6287 6.02431 16.6885 6.02426C16.8085 6.02375 16.9234 5.97568 17.008 5.89059C17.4327 5.46572 17.6713 4.88955 17.6713 4.28879C17.6713 3.68803 17.4327 3.11186 17.008 2.68699C16.9659 2.64489 16.9159 2.61149 16.8609 2.58871C16.8059 2.56593 16.7469 2.5542 16.6874 2.5542C16.6278 2.5542 16.5689 2.56593 16.5139 2.58871C16.4589 2.61149 16.4089 2.64489 16.3668 2.68699C16.3247 2.72909 16.2913 2.77907 16.2685 2.83408C16.2457 2.88908 16.234 2.94804 16.234 3.00758C16.234 3.06711 16.2457 3.12607 16.2685 3.18108C16.2913 3.23608 16.3247 3.28606 16.3668 3.32816C16.6213 3.58305 16.7643 3.92855 16.7643 4.28879C16.7643 4.64902 16.6213 4.99453 16.3668 5.24941C16.3247 5.2915 16.2912 5.34147 16.2684 5.39648C16.2456 5.45149 16.2339 5.51045 16.2339 5.57C16.2339 5.62955 16.2456 5.68851 16.2684 5.74352C16.2912 5.79853 16.3247 5.8485 16.3668 5.89059Z" fill="white"/>
<path d="M18.9316 7.82325C18.8472 7.90815 18.7998 8.02299 18.7998 8.1427C18.7998 8.26241 18.8472 8.37725 18.9316 8.46215C19.0165 8.54655 19.1313 8.59392 19.251 8.59392C19.3707 8.59392 19.4856 8.54655 19.5705 8.46215C20.6745 7.35754 21.2947 5.8597 21.2947 4.29794C21.2947 2.73618 20.6745 1.23834 19.5705 0.133719C19.4856 0.0493236 19.3707 0.00195312 19.251 0.00195312C19.1313 0.00195312 19.0165 0.0493236 18.9316 0.133719C18.8472 0.218617 18.7998 0.333462 18.7998 0.453172C18.7998 0.572881 18.8472 0.687726 18.9316 0.772625C19.3947 1.2355 19.762 1.78507 20.0126 2.38996C20.2633 2.99484 20.3923 3.64318 20.3923 4.29794C20.3923 4.95269 20.2633 5.60103 20.0126 6.20591C19.762 6.8108 19.3947 7.36037 18.9316 7.82325Z" fill="white"/>
<path d="M9.96875 20.3906C9.96875 20.5108 10.0165 20.6261 10.1015 20.711C10.1864 20.796 10.3017 20.8438 10.4219 20.8438H16.7656C16.8858 20.8438 17.0011 20.796 17.086 20.711C17.171 20.6261 17.2188 20.5108 17.2188 20.3906C17.2188 20.2704 17.171 20.1552 17.086 20.0702C17.0011 19.9852 16.8858 19.9375 16.7656 19.9375H10.4219C10.3017 19.9375 10.1864 19.9852 10.1015 20.0702C10.0165 20.1552 9.96875 20.2704 9.96875 20.3906Z" fill="white"/>
<path d="M15.4062 22.6562H9.0625C8.94232 22.6562 8.82707 22.704 8.74209 22.789C8.65711 22.8739 8.60938 22.9892 8.60938 23.1094C8.60938 23.2296 8.65711 23.3448 8.74209 23.4298C8.82707 23.5148 8.94232 23.5625 9.0625 23.5625H15.4062C15.5264 23.5625 15.6417 23.5148 15.7267 23.4298C15.8116 23.3448 15.8594 23.2296 15.8594 23.1094C15.8594 22.9892 15.8116 22.8739 15.7267 22.789C15.6417 22.704 15.5264 22.6562 15.4062 22.6562Z" fill="white"/>
<path d="M14.0469 25.375H7.70312C7.58295 25.375 7.46769 25.4227 7.38272 25.5077C7.29774 25.5927 7.25 25.7079 7.25 25.8281C7.25 25.9483 7.29774 26.0636 7.38272 26.1485C7.46769 26.2335 7.58295 26.2812 7.70312 26.2812H14.0469C14.1671 26.2812 14.2823 26.2335 14.3673 26.1485C14.4523 26.0636 14.5 25.9483 14.5 25.8281C14.5 25.7079 14.4523 25.5927 14.3673 25.5077C14.2823 25.4227 14.1671 25.375 14.0469 25.375Z" fill="white"/>
</g>
<defs>
<clipPath id="clip0_16_562">
<rect width="29" height="29" fill="white"/>
</clipPath>
</defs>
</svg>
