<svg width="84" height="72" viewBox="0 0 84 72" fill="none" xmlns="http://www.w3.org/2000/svg">
<circle cx="81.6282" cy="1.56374" r="1.56375" transform="rotate(90 81.6282 1.56374)" fill="#00C5DE"/>
<circle cx="81.6282" cy="15.3247" r="1.56375" transform="rotate(90 81.6282 15.3247)" fill="#00C5DE"/>
<circle cx="81.6282" cy="29.0856" r="1.56375" transform="rotate(90 81.6282 29.0856)" fill="#00C5DE"/>
<circle cx="81.6282" cy="42.8466" r="1.56375" transform="rotate(90 81.6282 42.8466)" fill="#00C5DE"/>
<circle cx="81.6282" cy="56.6076" r="1.56375" transform="rotate(90 81.6282 56.6076)" fill="#00C5DE"/>
<circle cx="81.6282" cy="70.3686" r="1.56375" transform="rotate(90 81.6282 70.3686)" fill="#00C5DE"/>
<circle cx="70.3694" cy="1.56374" r="1.56375" transform="rotate(90 70.3694 1.56374)" fill="#00C5DE"/>
<circle cx="70.3694" cy="15.3247" r="1.56375" transform="rotate(90 70.3694 15.3247)" fill="#00C5DE"/>
<circle cx="70.3694" cy="29.0856" r="1.56375" transform="rotate(90 70.3694 29.0856)" fill="#00C5DE"/>
<circle cx="70.3694" cy="42.8466" r="1.56375" transform="rotate(90 70.3694 42.8466)" fill="#00C5DE"/>
<circle cx="70.3694" cy="56.6076" r="1.56375" transform="rotate(90 70.3694 56.6076)" fill="#00C5DE"/>
<circle cx="70.3694" cy="70.3686" r="1.56375" transform="rotate(90 70.3694 70.3686)" fill="#00C5DE"/>
<circle cx="58.4846" cy="1.56374" r="1.56375" transform="rotate(90 58.4846 1.56374)" fill="#00C5DE"/>
<circle cx="58.4846" cy="15.3247" r="1.56375" transform="rotate(90 58.4846 15.3247)" fill="#00C5DE"/>
<circle cx="58.4846" cy="29.0856" r="1.56375" transform="rotate(90 58.4846 29.0856)" fill="#00C5DE"/>
<circle cx="58.4846" cy="42.8466" r="1.56375" transform="rotate(90 58.4846 42.8466)" fill="#00C5DE"/>
<circle cx="58.4846" cy="56.6076" r="1.56375" transform="rotate(90 58.4846 56.6076)" fill="#00C5DE"/>
<circle cx="58.4846" cy="70.3686" r="1.56375" transform="rotate(90 58.4846 70.3686)" fill="#00C5DE"/>
<circle cx="47.2258" cy="1.56374" r="1.56375" transform="rotate(90 47.2258 1.56374)" fill="#00C5DE"/>
<circle cx="47.2258" cy="15.3247" r="1.56375" transform="rotate(90 47.2258 15.3247)" fill="#00C5DE"/>
<circle cx="47.2258" cy="29.0856" r="1.56375" transform="rotate(90 47.2258 29.0856)" fill="#00C5DE"/>
<circle cx="47.2258" cy="42.8466" r="1.56375" transform="rotate(90 47.2258 42.8466)" fill="#00C5DE"/>
<circle cx="47.2258" cy="56.6076" r="1.56375" transform="rotate(90 47.2258 56.6076)" fill="#00C5DE"/>
<circle cx="47.2258" cy="70.3686" r="1.56375" transform="rotate(90 47.2258 70.3686)" fill="#00C5DE"/>
<circle cx="35.9668" cy="1.56374" r="1.56375" transform="rotate(90 35.9668 1.56374)" fill="#00C5DE"/>
<circle cx="35.9668" cy="15.3247" r="1.56375" transform="rotate(90 35.9668 15.3247)" fill="#00C5DE"/>
<circle cx="35.9668" cy="29.0856" r="1.56375" transform="rotate(90 35.9668 29.0856)" fill="#00C5DE"/>
<circle cx="35.9668" cy="42.8466" r="1.56375" transform="rotate(90 35.9668 42.8466)" fill="#00C5DE"/>
<circle cx="35.9668" cy="56.6076" r="1.56375" transform="rotate(90 35.9668 56.6076)" fill="#00C5DE"/>
<circle cx="35.9668" cy="70.3686" r="1.56375" transform="rotate(90 35.9668 70.3686)" fill="#00C5DE"/>
<circle cx="24.708" cy="1.56374" r="1.56375" transform="rotate(90 24.708 1.56374)" fill="#00C5DE"/>
<circle cx="24.708" cy="15.3247" r="1.56375" transform="rotate(90 24.708 15.3247)" fill="#00C5DE"/>
<circle cx="24.708" cy="29.0856" r="1.56375" transform="rotate(90 24.708 29.0856)" fill="#00C5DE"/>
<circle cx="24.708" cy="42.8466" r="1.56375" transform="rotate(90 24.708 42.8466)" fill="#00C5DE"/>
<circle cx="24.708" cy="56.6076" r="1.56375" transform="rotate(90 24.708 56.6076)" fill="#00C5DE"/>
<circle cx="24.708" cy="70.3686" r="1.56375" transform="rotate(90 24.708 70.3686)" fill="#00C5DE"/>
<circle cx="12.8235" cy="1.56374" r="1.56375" transform="rotate(90 12.8235 1.56374)" fill="#00C5DE"/>
<circle cx="12.8235" cy="15.3247" r="1.56375" transform="rotate(90 12.8235 15.3247)" fill="#00C5DE"/>
<circle cx="12.8235" cy="29.0856" r="1.56375" transform="rotate(90 12.8235 29.0856)" fill="#00C5DE"/>
<circle cx="12.8235" cy="42.8466" r="1.56375" transform="rotate(90 12.8235 42.8466)" fill="#00C5DE"/>
<circle cx="12.8235" cy="56.6076" r="1.56375" transform="rotate(90 12.8235 56.6076)" fill="#00C5DE"/>
<circle cx="12.8235" cy="70.3686" r="1.56375" transform="rotate(90 12.8235 70.3686)" fill="#00C5DE"/>
<circle cx="1.56418" cy="1.56374" r="1.56375" transform="rotate(90 1.56418 1.56374)" fill="#00C5DE"/>
<circle cx="1.56418" cy="15.3247" r="1.56375" transform="rotate(90 1.56418 15.3247)" fill="#00C5DE"/>
<circle cx="1.56418" cy="29.0856" r="1.56375" transform="rotate(90 1.56418 29.0856)" fill="#00C5DE"/>
<circle cx="1.56418" cy="42.8466" r="1.56375" transform="rotate(90 1.56418 42.8466)" fill="#00C5DE"/>
<circle cx="1.56418" cy="56.6076" r="1.56375" transform="rotate(90 1.56418 56.6076)" fill="#00C5DE"/>
<circle cx="1.56418" cy="70.3686" r="1.56375" transform="rotate(90 1.56418 70.3686)" fill="#00C5DE"/>
</svg>
