<svg width="103" height="89" viewBox="0 0 103 89" fill="none" xmlns="http://www.w3.org/2000/svg">
<circle cx="100.996" cy="1.93478" r="1.93478" transform="rotate(90 100.996 1.93478)" fill="#00C5DE"/>
<circle cx="100.996" cy="18.9609" r="1.93478" transform="rotate(90 100.996 18.9609)" fill="#00C5DE"/>
<circle cx="100.996" cy="35.9868" r="1.93478" transform="rotate(90 100.996 35.9868)" fill="#00C5DE"/>
<circle cx="100.996" cy="53.013" r="1.93478" transform="rotate(90 100.996 53.013)" fill="#00C5DE"/>
<circle cx="100.996" cy="70.0392" r="1.93478" transform="rotate(90 100.996 70.0392)" fill="#00C5DE"/>
<circle cx="100.996" cy="87.0653" r="1.93478" transform="rotate(90 100.996 87.0653)" fill="#00C5DE"/>
<circle cx="87.0662" cy="1.93478" r="1.93478" transform="rotate(90 87.0662 1.93478)" fill="#00C5DE"/>
<circle cx="87.0662" cy="18.9609" r="1.93478" transform="rotate(90 87.0662 18.9609)" fill="#00C5DE"/>
<circle cx="87.0662" cy="35.9868" r="1.93478" transform="rotate(90 87.0662 35.9868)" fill="#00C5DE"/>
<circle cx="87.0662" cy="53.013" r="1.93478" transform="rotate(90 87.0662 53.013)" fill="#00C5DE"/>
<circle cx="87.0662" cy="70.0392" r="1.93478" transform="rotate(90 87.0662 70.0392)" fill="#00C5DE"/>
<circle cx="87.0662" cy="87.0653" r="1.93478" transform="rotate(90 87.0662 87.0653)" fill="#00C5DE"/>
<circle cx="72.3616" cy="1.93478" r="1.93478" transform="rotate(90 72.3616 1.93478)" fill="#00C5DE"/>
<circle cx="72.3616" cy="18.9609" r="1.93478" transform="rotate(90 72.3616 18.9609)" fill="#00C5DE"/>
<circle cx="72.3616" cy="35.9868" r="1.93478" transform="rotate(90 72.3616 35.9868)" fill="#00C5DE"/>
<circle cx="72.3616" cy="53.013" r="1.93478" transform="rotate(90 72.3616 53.013)" fill="#00C5DE"/>
<circle cx="72.3616" cy="70.0392" r="1.93478" transform="rotate(90 72.3616 70.0392)" fill="#00C5DE"/>
<circle cx="72.3616" cy="87.0653" r="1.93478" transform="rotate(90 72.3616 87.0653)" fill="#00C5DE"/>
<circle cx="58.4309" cy="1.93478" r="1.93478" transform="rotate(90 58.4309 1.93478)" fill="#00C5DE"/>
<circle cx="58.4309" cy="18.9609" r="1.93478" transform="rotate(90 58.4309 18.9609)" fill="#00C5DE"/>
<circle cx="58.4309" cy="35.9868" r="1.93478" transform="rotate(90 58.4309 35.9868)" fill="#00C5DE"/>
<circle cx="58.4309" cy="53.013" r="1.93478" transform="rotate(90 58.4309 53.013)" fill="#00C5DE"/>
<circle cx="58.4309" cy="70.0392" r="1.93478" transform="rotate(90 58.4309 70.0392)" fill="#00C5DE"/>
<circle cx="58.4309" cy="87.0653" r="1.93478" transform="rotate(90 58.4309 87.0653)" fill="#00C5DE"/>
<circle cx="44.5008" cy="1.93478" r="1.93478" transform="rotate(90 44.5008 1.93478)" fill="#00C5DE"/>
<circle cx="44.5008" cy="18.9609" r="1.93478" transform="rotate(90 44.5008 18.9609)" fill="#00C5DE"/>
<circle cx="44.5008" cy="35.9868" r="1.93478" transform="rotate(90 44.5008 35.9868)" fill="#00C5DE"/>
<circle cx="44.5008" cy="53.013" r="1.93478" transform="rotate(90 44.5008 53.013)" fill="#00C5DE"/>
<circle cx="44.5008" cy="70.0392" r="1.93478" transform="rotate(90 44.5008 70.0392)" fill="#00C5DE"/>
<circle cx="44.5008" cy="87.0653" r="1.93478" transform="rotate(90 44.5008 87.0653)" fill="#00C5DE"/>
<circle cx="30.5706" cy="1.93478" r="1.93478" transform="rotate(90 30.5706 1.93478)" fill="#00C5DE"/>
<circle cx="30.5706" cy="18.9609" r="1.93478" transform="rotate(90 30.5706 18.9609)" fill="#00C5DE"/>
<circle cx="30.5706" cy="35.9868" r="1.93478" transform="rotate(90 30.5706 35.9868)" fill="#00C5DE"/>
<circle cx="30.5706" cy="53.013" r="1.93478" transform="rotate(90 30.5706 53.013)" fill="#00C5DE"/>
<circle cx="30.5706" cy="70.0392" r="1.93478" transform="rotate(90 30.5706 70.0392)" fill="#00C5DE"/>
<circle cx="30.5706" cy="87.0653" r="1.93478" transform="rotate(90 30.5706 87.0653)" fill="#00C5DE"/>
<circle cx="15.866" cy="1.93478" r="1.93478" transform="rotate(90 15.866 1.93478)" fill="#00C5DE"/>
<circle cx="15.866" cy="18.9609" r="1.93478" transform="rotate(90 15.866 18.9609)" fill="#00C5DE"/>
<circle cx="15.866" cy="35.9868" r="1.93478" transform="rotate(90 15.866 35.9868)" fill="#00C5DE"/>
<circle cx="15.866" cy="53.013" r="1.93478" transform="rotate(90 15.866 53.013)" fill="#00C5DE"/>
<circle cx="15.866" cy="70.0392" r="1.93478" transform="rotate(90 15.866 70.0392)" fill="#00C5DE"/>
<circle cx="15.866" cy="87.0653" r="1.93478" transform="rotate(90 15.866 87.0653)" fill="#00C5DE"/>
<circle cx="1.93533" cy="1.93478" r="1.93478" transform="rotate(90 1.93533 1.93478)" fill="#00C5DE"/>
<circle cx="1.93533" cy="18.9609" r="1.93478" transform="rotate(90 1.93533 18.9609)" fill="#00C5DE"/>
<circle cx="1.93533" cy="35.9868" r="1.93478" transform="rotate(90 1.93533 35.9868)" fill="#00C5DE"/>
<circle cx="1.93533" cy="53.013" r="1.93478" transform="rotate(90 1.93533 53.013)" fill="#00C5DE"/>
<circle cx="1.93533" cy="70.0392" r="1.93478" transform="rotate(90 1.93533 70.0392)" fill="#00C5DE"/>
<circle cx="1.93533" cy="87.0653" r="1.93478" transform="rotate(90 1.93533 87.0653)" fill="#00C5DE"/>
</svg>
