<svg width="25" height="25" viewBox="0 0 25 25" fill="none" xmlns="http://www.w3.org/2000/svg">
<g clip-path="url(#clip0_16_605)">
<path d="M22.5586 4.49227H20.5077V2.4414C20.5077 1.09521 19.4125 0 18.0663 0H2.4414C1.09521 0 0 1.09521 0 2.4414V18.0663C0 19.4125 1.09521 20.5077 2.4414 20.5077H4.49222V22.5586C4.49222 23.9048 5.58743 25 6.93362 25H22.5586C23.9048 25 25 23.9048 25 22.5586V6.93362C25 5.58743 23.9048 4.49227 22.5586 4.49227ZM2.4414 19.5312C1.63369 19.5312 0.976559 18.8741 0.976559 18.0663V2.4414C0.976559 1.63368 1.63369 0.976559 2.4414 0.976559H18.0663C18.8741 0.976559 19.5312 1.63368 19.5312 2.4414V18.0663C19.5312 18.874 18.8741 19.5312 18.0663 19.5312H2.4414ZM24.0234 22.5586C24.0234 23.3663 23.3663 24.0234 22.5586 24.0234H6.93362C6.12591 24.0234 5.46878 23.3663 5.46878 22.5586V20.5077H18.0663C19.4125 20.5077 20.5077 19.4125 20.5077 18.0663V5.46883H22.5586C23.3663 5.46883 24.0234 6.12595 24.0234 6.93366V22.5586Z" fill="white"/>
<path d="M6.9458 22.3145H6.93262C6.66294 22.3145 6.44434 22.5331 6.44434 22.8027C6.44434 23.0724 6.66294 23.291 6.93262 23.291H6.9458C7.21548 23.291 7.43408 23.0724 7.43408 22.8027C7.43408 22.5331 7.21552 22.3145 6.9458 22.3145Z" fill="white"/>
<path d="M22.5597 22.3145H8.34863C8.07895 22.3145 7.86035 22.5331 7.86035 22.8027C7.86035 23.0724 8.07895 23.291 8.34863 23.291H22.5597C22.8293 23.291 23.048 23.0724 23.048 22.8027C23.048 22.5331 22.8294 22.3145 22.5597 22.3145Z" fill="white"/>
<path d="M5.37256 1.70898H5.35937C5.0897 1.70898 4.87109 1.92759 4.87109 2.19726C4.87109 2.46694 5.0897 2.68554 5.35937 2.68554H5.37256C5.64223 2.68554 5.86084 2.46694 5.86084 2.19726C5.86084 1.92759 5.64228 1.70898 5.37256 1.70898Z" fill="white"/>
<path d="M3.95678 1.70898H2.4414C2.17173 1.70898 1.95312 1.92759 1.95312 2.19726C1.95312 2.46694 2.17173 2.68554 2.4414 2.68554H3.95673C4.22641 2.68554 4.44501 2.46694 4.44501 2.19726C4.44506 1.92759 4.22646 1.70898 3.95678 1.70898Z" fill="white"/>
<path d="M14.3302 9.82076C14.2141 9.39112 13.9378 9.03238 13.5528 8.81119L11.1642 7.43219C11.1402 7.41662 11.116 7.40168 11.0917 7.38771L8.70932 6.01213C8.43642 5.8322 8.11918 5.73718 7.79072 5.73718C6.86928 5.73718 6.11963 6.48679 6.11963 7.40827V13.1021C6.11963 13.122 6.12085 13.1416 6.12314 13.1609C6.13276 13.4333 6.20967 13.7009 6.34707 13.9382C6.64443 14.4517 7.19804 14.7706 7.79189 14.7706C8.08417 14.7706 8.37294 14.6929 8.62631 14.5461L11.0917 13.1226C11.1057 13.1145 11.1191 13.1059 11.132 13.0967L13.5353 11.7093C13.7976 11.5627 14.0157 11.3471 14.1663 11.0853C14.388 10.6995 14.4462 10.2503 14.3302 9.82076ZM13.3197 10.5987C13.257 10.7077 13.1663 10.7973 13.0575 10.8577C13.0551 10.859 13.0527 10.8604 13.0503 10.8617L10.6024 12.2749C10.5884 12.283 10.575 12.2916 10.5621 12.3009L8.13749 13.7008C8.03207 13.7618 7.91254 13.7941 7.79189 13.7941C7.54531 13.7941 7.31547 13.6619 7.19213 13.4489C7.13095 13.3432 7.09868 13.2235 7.09878 13.1026C7.09878 13.086 7.09794 13.0695 7.09624 13.0531V7.40827H7.09629C7.09629 7.02531 7.40786 6.71374 7.79081 6.71374C7.93002 6.71374 8.06401 6.75456 8.17831 6.83176C8.18783 6.83815 8.19755 6.84426 8.20746 6.85002L10.6045 8.234C10.6165 8.24093 10.628 8.24826 10.6394 8.25582C10.6475 8.26115 10.6558 8.26627 10.6642 8.27116L13.0654 9.65743C13.2251 9.74918 13.3394 9.89761 13.3875 10.0754C13.4355 10.2533 13.4114 10.4391 13.3197 10.5987Z" fill="white"/>
</g>
<defs>
<clipPath id="clip0_16_605">
<rect width="25" height="25" fill="white"/>
</clipPath>
</defs>
</svg>
